<svg xmlns="http://www.w3.org/2000/svg" version="1.1" width="600px" height="600px" viewBox="0 0 200 200" style="overflow:hidden!important;"><defs id="SvgjsDefs12219"><linearGradient id="SvgjsLinearGradient13355" x1="80.8496" y1="88.027" x2="80.8496" y2="115.008" gradientUnits="userSpaceOnUse" class="svga-on-canvas-glasses-gradient-single-0-null"><stop id="SvgjsStop13356" stop-opacity="1" stop-color="#ff73b2" offset="0.004166667" ></stop><stop id="SvgjsStop13357" stop-opacity="0.8296" stop-color="#ff76aa" offset="0.1739" ></stop><stop id="SvgjsStop13358" stop-opacity="0.5716" stop-color="#ff7d96" offset="0.4308" ></stop><stop id="SvgjsStop13359" stop-opacity="0.2598" stop-color="#ff8874" offset="0.7413" ></stop><stop id="SvgjsStop13360" stop-opacity="0" stop-color="#ff9452" offset="1" ></stop></linearGradient><linearGradient id="SvgjsLinearGradient13362" x1="-21.1504" y1="88.027" x2="-21.1504" y2="115.008" gradientTransform="matrix(-1 0 0 1 98 0)" gradientUnits="userSpaceOnUse" class="svga-on-canvas-glasses-gradient-single-1-null"><stop id="SvgjsStop13363" stop-opacity="1" stop-color="#ff73b2" offset="0.004166667" ></stop><stop id="SvgjsStop13364" stop-opacity="0.8296" stop-color="#ff76aa" offset="0.1739" ></stop><stop id="SvgjsStop13365" stop-opacity="0.5716" stop-color="#ff7d96" offset="0.4308" ></stop><stop id="SvgjsStop13366" stop-opacity="0.2598" stop-color="#ff8874" offset="0.7413" ></stop><stop id="SvgjsStop13367" stop-opacity="0" stop-color="#ff9452" offset="1" ></stop></linearGradient></defs><g id="svga-group-wrapper"><g id="svga-group-backs-single"></g><g id="svga-group-humanwrap-move" transform="matrix(1,0,0,1,0,0)"><g id="svga-group-humanwrap" transform="matrix(1,0,0,1,0,0)"><g id="svga-group-hair-back-move" transform="matrix(1,0,0,1,0,0)"><g id="svga-group-hair-back" transform="matrix(1,0,0,1,0,0)"></g></g><g id="svga-group-humanbody-back"><path id="SvgjsPath12523" d="m168.2 200-4.6-14.2-34.9-13.4-10.8-9.7-1.4-50.5h-33l-1.4 50.5-10.8 9.7-34.9 13.4-4.6 14.2-3 20h142.4z" fill="#875732" stroke-width="none" opacity="1" stroke="none"></path><path id="SvgjsPath12524" d="m83.5 112.2-1.4 50.5-10.8 9.7-34.9 13.4-4.6 14.2-3 20H39v-20l1.7-13.3 32.1-12.9 14.1-9.5 2-52.1z" fill="#683712" stroke-width="none" opacity="1" stroke="none"></path></g><g id="svga-group-chinshadow-single"><path id="SvgjsPath13124" d="m117.4 146.9-.9-34.7h-33l-1 38.2 10.7 7 4 1.1 4.1-1.1z" fill="#592a06" stroke-width="none" opacity="1" stroke="none"></path></g><g id="svga-group-humanbody-front"></g><g id="svga-group-clothes-single"><path id="SvgjsPath13517" d="m173.6 220-2.4-20-3.3-12.7-3.4-1.5-1.6-2.1-16.4-5.8-.9-2.1-4.8-3.6-2.9-9.9-4.9-5-6.7-4.4-8.7-1 .3 10.8-1 9.6-12 10.4-3.2 4-6.6-4-12-10.4-1-9.6.3-10.8-8.7 1-6.7 4.4-4.9 5-2.9 9.9-4.8 3.6-.9 2.1-16.5 5.8-1.5 2.1-3.4 1.5-3.3 12.7-2.4 20z" fill="#864025" stroke-width="none" opacity="1"></path><path id="SvgjsPath13518" d="M129.1 168.4c.6-.4.6-6.2.6-6.2l-1.7-7.1s.8 10.4.8 11-13.5 12.3-13.5 12.3l-10 8.3 9.6-5.4s13.7-12.5 14.2-12.9zm13.7 13.3-7.5 3.5-18.1 4.8-7.4 2.8-1.6-1.6.5-2.4-2.3.2s-.3.7-.5 1.3h-.1l-.1-.8-4.2-2.9 3.3 4.1-1.5.6v-.3l-2.4-.4-.7 2.4h.1l-6 5-3.3 9.3 4.7 3.2 3.6-4.9.4-7.2 2.5-4.9-3.8 5-.3 6.5-2.8 3.5-2.6-2.1 2.8-8.5 4.9-4.9 2.1.4-.2 11.1 2.9 11.8 2.3-1.3-4.2-10.9-.4-10.6.1-1.1 1.3-.4.8 2.5-1.6.6 1.7-.4 1.8 5.6 2.1 17.9 3.3-.4-3.9-13.2-.9-5.2-1.8-4.8h.1l.1.4-.1-.4 1.4-.3.8 1.4 1.9 14.1 3.6 1.2 2.1-4.3-3.2-10.7-2.6-2.5 6.6-1.6 17.9-4.4 9.1-4.2 2.5-5.2-.9-2.1-2.3 5.7zm-36 9.5c.6.2 1.3.5 1.3.5l.1-.3 1.3 1.5-1.8.7-1.4-2.2.5-.2zm-.7 3-.9-2.4.2-.1.7 2.5zm.2-.1-.3-2.6.2-.1 1.3 2.3-1.2.4zm5.8 1.8 3.2 10.5-1.8 3.3-2.4-1.1-2-12.8-1.2-1.9 2-.5 2.2 2.5zm18-15.3 10.7-8.3-1.9-5.4s-9.1 11-9.2 11.6c-.2.6-11.9 4.2-11.9 4.2l-9.1 6.2 9.2-4.6 12.2-3.7zm34 7.1-5.8 13.5-1.9 18.5 3.3-18.1 6.2-13.5-1.8-.4zM88 192l-15.9-4.2-10-12.7 1.5-8.2 2.7 5.2 12.5 11.5 14.2 2.2s-11-3.2-11.7-3.2-12-11.2-12-11.2l.2-12 10.5-5.7 1.7-1.7-8 .9-6.7 4.5-5 5-2.9 9.9-4.8 3.6-.9 2.1-16.4 5.7-1.5 2.1-3.4 1.5-3.3 12.7-2.4 20h8.3l1.8-26 2.6-1.2 4.5 6.4s5 20.1 5.2 19.5-4.2-20.1-4.2-20.1l-4.5-6.6 1.4-1.8L57 186l10 4.5 13.9 3 14.9.8L88 192zm-10.7-34.6-1 7.5 6.8 7.4-1-9.6.2-8.9-5 3.6zm44.4 8.7 1.7-9-4.7-4-.5-1.2-.6-.1.3 10.8-1 9.6 4.8-6.1z" fill="#773015" stroke-width="none" opacity="1"></path><path id="SvgjsPath13519" d="m146.9 179 15.7 5.4.6 2.7-4.4 10.8 1.6-11.9-14.9-5.4 1.4-1.6zm18 13.2 2.4-3.8 2.4 11.9 1.4 18.5-3.6-18.5-2.6-8.1zM122.4 154l2.8 4-2.4 10-4.8 4.9-13.3 11.9 15-11.4 7.9-7.8-.6-8.6-4.6-3zm-47 4.5-.6 7.9 7.8 9 12.3 8.6 6.5 3.5-8.4-2.7-13-7.6-8.4-10.2 1.9-7.3 1.9-1.2z" fill="#955238" stroke-width="none" opacity="1"></path></g><g id="svga-group-head" transform="matrix(1,0,0,1,0,0)"><g id="svga-group-ears-left-move" transform="matrix(1,0,0,1,0,0)"><g id="svga-group-ears-left" transform="matrix(1,0,0,1,0,0)"><path id="SvgjsPath13268" d="m65.4 98.3-5.3-9.7-7-.9-2 7.2.4 8.9 7 11.4 6.1 4.5 3.8-11.6z" fill="#875732" stroke-width="none" opacity="1"></path><path id="SvgjsPath13269" d="m59.4 101.2-4.1-9.8-1.9 5.1.4 5 2.6 6.1-1.6-9.4 1.5-.7 1.3 10.8 2 2.1z" fill="#683712" stroke-width="none" opacity="1"></path><path id="SvgjsPath13270" d="m61.7 101-3.2-11.6-5.4-1.7 7 .9 5.3 9.7 3 9.8-3.8 11.6-6.1-4.5 3.6.7z" fill="#784620" stroke-width="none" opacity="1"></path></g></g><g id="svga-group-ears-right-move" transform="matrix(1,0,0,1,0,0)"><g id="svga-group-ears-right" transform="matrix(1,0,0,1,0,0)"><path id="SvgjsPath13271" d="m134.6 98.3 5.3-9.7 7-.9 2 7.2-.4 8.9-7 11.4-6.1 4.5-3.8-11.6z" fill="#875732" stroke-width="none" opacity="1"></path><path id="SvgjsPath13272" d="m140.6 101.2 4.1-9.8 1.9 5.1-.4 5-2.6 6.1 1.6-9.4-1.5-.7-1.3 10.8-2 2.1z" fill="#683712" stroke-width="none" opacity="1"></path><path id="SvgjsPath13273" d="m138.3 101 3.2-11.6 5.4-1.7-7 .9-5.3 9.7-3 9.8 3.8 11.6 6.1-4.5-3.6.7z" fill="#784620" stroke-width="none" opacity="1"></path></g></g><g id="svga-group-faceshape-wrap" transform="matrix(1,0,0,1,0,0)"><g id="svga-group-faceshape-single"><path id="SvgjsPath13114" d="M136.8 61c-6.7-11.2-19-18.9-19-18.9-7-1.5-17.8-2.2-17.8-2.2s-10.8.8-17.8 2.2c0 0-12.4 7.6-19 18.9 0 0-5 14-5.2 23.9l2.1 23 6.6 19.2 6.3 8.4 23 15 4 1 4-1 22.9-14.9 6.3-8.4 6.6-19.2 2.1-23c-.2-9.9-5.1-24-5.1-24z" fill="#875732" stroke-width="none" opacity="1" stroke="none"></path><path id="SvgjsPath13115" d="m93.8 147.5-17.6-13.8-6.2-8.1-6.2-17.5-3-23 6-22.3 17-18 16-3.3 18 .6c-7-1.5-17.8-2.2-17.8-2.2s-10.8.8-17.8 2.2c0 0-12.4 7.6-19 18.9 0 0-5 14-5.2 23.9l2.1 23 6.6 19.2 6.3 8.4 23 15 4 1 4-1-3.7.3-6.5-3.3z" fill="#683712" stroke-width="none" opacity="1" stroke="none"></path></g></g><g id="svga-group-mouth-single-move" transform="matrix(1,0,0,1,0,0)"><g id="svga-group-mouth-single" transform="matrix(1,0,0,1,0,0)"><path id="SvgjsPath13258" d="m86.12 128.47 10.5-2.08 3.9 2.03 3.33-2.19 11.79 2.28-8.05 7.56-6.99 1.62-6.5-1.54z" fill="#e2929b" stroke-width="none" opacity="1" transform="translate(0 3)" stroke="none"></path><path id="SvgjsPath13259" d="m84.99 128.26 15.53 3.17 16.59-3.17-16.75 2.36z" fill="#d3737e" stroke-width="none" opacity="1" transform="translate(0 3)" stroke="none"></path></g></g><g id="svga-group-eyes-left-move" transform="matrix(1,0,0,1,0,0)"><g id="svga-group-eyes-left" transform="matrix(1,0,0,1,0,0)"><g id="svga-group-eyesback-left"><path id="SvgjsPath12905" d="M92 100.8 87.7 97s-12.6-.7-12.9-.7-6.2 4.1-5.9 4.2c.2.2 6.3 2.9 8.7 3.4 0 0 3.7 0 7.5-.8 2.7-.6 5.5-1.7 6.9-2.3z" fill="#ffffff" stroke-width="none" opacity="1"></path></g><g id="svga-group-eyesiriswrapper-left" transform="matrix(1,0,0,1,0,0)"><g id="svga-group-eyesiriscontrol-left" transform="matrix(1,0,0,1,0,0)"><g id="svga-group-eyesiris-left" transform="matrix(1,0,0,1,0,0)"><path id="SvgjsPath12861" d="m77.71 102.12-.73-3.56 2-3.04 3.56-.73 3.04 2 .73 3.56-2 3.04-3.56.73z" fill="#4faaab" stroke-width="none" opacity="1"></path><path id="SvgjsPath12862" d="m80.63 101.89-1.42-1.42v-2.03l1.42-1.42h2.03l1.43 1.42v2.03l-1.43 1.42z" fill="#000000" stroke-width="none" opacity="1"></path><path id="SvgjsPath12863" d="m85.79 96.65-3.2-2.11-3.75.77-2.11 3.2.77 3.75 3.2 2.11 3.75-.77 2.11-3.2-.77-3.75zm-4.21 5.4.2 1.61-.52.11v-1.72h.32zm.16 0h.35l.42 1.46-.57.12-.2-1.58zm.51 0h.38l.73 1.29-.7.14-.41-1.43zm.34-.31H80.7l-1.34-1.34v-1.89l1.34-1.34h1.89l1.34 1.34v1.89l-1.34 1.34zm-3.61.93 1-1.2.23.23c-.24.47-.54 1.08-.68 1.34l-.55-.37zm.89-1.31-1.02 1.23-.48-.32 1.2-1.22.3.31zm.47.46.21.21-.25 1.51-.63-.42c.1-.18.29-.55.67-1.3zm-2.61-.8-.16-.77 1.48-.21v.37l-1.32.61zm1.32-1.6-1.67-.1-.11-.52 1.77.2v.42zm0 .16v.31l-1.51.21-.13-.61 1.64.09zm.1-1.3-1.47-.34.64-.97 1.28.87-.45.44zm-.24-2.21c.16.16.52.48 1.3 1.15l-.51.51-1.3-.89.51-.77zm2.46.79c-.05-.34-.18-1.12-.24-1.53l.67-.14v1.67h-.43zm-.16 0h-.33l-.77-1.33.86-.18c.08.54.19 1.2.24 1.51zm3.03 1.87 1.42-.33.13.63-1.55.1v-.4zm0-.16v-.19l-.24-.25 1.39-1.08.25 1.2-1.4.32zm-.36-.55-.33-.33 1.16-1.18.61.4-1.44 1.11zm-.44-.44-.45-.45.66-1.32.92.61-1.13 1.16zm-.56-.57-.16-.16h-.24l.21-1.69.84.55-.65 1.3zm.64 4.25 1.13 1.19-.36.54-1.1-1.4.33-.33zm.11-.12.22-.22 1.34.7-.45.68-1.11-1.16zm.33-.33.28-.28v-.1c.31.08.94.26 1.46.42l-.43.65-1.31-.69zm.28-1.52 1.59-.1.12.57-1.7-.06v-.41zm-1.7-4.22-.22 1.78h-.38v-1.7l.55-.11.05.03zm-2.59.5.75 1.29h-.13l-.25.25c-.49-.42-1.13-.98-1.33-1.17l.13-.2.83-.17zm-2.37 2.51 1.47.34v.43l-1.81-.21-.01-.04.35-.52zm.18 3.1 1.32-.61.37.37-1.22 1.24-.31-.2-.16-.8zm2.69 2.46.26-1.58h.4v1.75l-.31.06-.35-.23zm3.07-.33-.74-1.32.3-.3 1.12 1.43-.03.05-.65.14zm2.27-2.6c-.53-.15-1.22-.36-1.55-.44v-.41l1.74.06.08.38-.27.41z" fill="#258b8c" stroke-width="none" opacity="1"></path><path id="SvgjsPath12864" d="m81.2 97.05-.87-.25-.65.62.21.88.87.26.65-.63z" fill="#ffffff" stroke-width="none" opacity="1"></path><path id="SvgjsPath12865" d="m83.15 100.84-.53-.3-.53.3v.62l.53.3.53-.3z" fill="#ffffff" stroke-width="none" opacity="1"></path></g></g></g><g id="svga-group-eyesfront-left"><path id="SvgjsPath12913" d="M68 94.5v11.1l7.7 7.9h10.9l7.7-7.9V94.5l-7.7-7.9H75.7L68 94.5zm.9 6.1c-.2-.2 5.7-4.2 5.9-4.2.2 0 12.9.7 12.9.7l4.3 3.8c-1.4.6-4.2 1.7-7 2.3-3.8.8-7.5.8-7.5.8-2.3-.5-8.3-3.3-8.6-3.4z" fill="#875732" stroke-width="none" opacity="1" stroke="none"></path><path id="SvgjsPath12914" d="m92.3 99.9-3.9-5.3-10.9-.1-2.3 1.3 3.5-.8 9.3.5z" fill="#784620" stroke-width="none" opacity="1" stroke="none"></path><path id="SvgjsPath12915" d="m67.5 101.7 1.8-.2-3.1-1.2 2.1-.4.5-.3-1.2-.3 1.7-.1 1.2-.8-1.9-.4 2.4.1 1.2-.8-1.3-.4 1.8.1.7-.5-.8-.3h1.3l.3-.1 13.6.5 4.9 4.3-.8-.1-4.3-3.6-12.6-.4-4.6 3.6 7.1 3.6-1.8-.2-.9-.4h-1.9l1.1-.3-1.6-.5-2.5-.1 1.5-.3-1.3-.5z" fill="#1b1929" stroke-width="none" opacity="1" stroke="none"></path></g></g></g><g id="svga-group-eyes-right-move" transform="matrix(1,0,0,1,0,0)"><g id="svga-group-eyes-right" transform="matrix(1,0,0,1,0,0)"><g id="svga-group-eyesback-right"><path id="SvgjsPath12906" d="m108 100.8 4.3-3.8s12.6-.7 12.9-.7 6.2 4.1 5.9 4.2c-.2.2-6.3 2.9-8.7 3.4 0 0-3.7 0-7.5-.8-2.7-.6-5.5-1.7-6.9-2.3z" fill="#ffffff" stroke-width="none" opacity="1"></path></g><g id="svga-group-eyesiriswrapper-right" transform="matrix(1,0,0,1,0,0)"><g id="svga-group-eyesiriscontrol-right" transform="matrix(1,0,0,1,0,0)"><g id="svga-group-eyesiris-right" transform="matrix(1,0,0,1,0,0)"><path id="SvgjsPath12866" d="m114.42 102.12-.73-3.56 2-3.04 3.56-.73 3.04 2 .73 3.56-2 3.04-3.56.73z" fill="#4faaab" stroke-width="none" opacity="1"></path><path id="SvgjsPath12867" d="m117.34 101.89-1.43-1.42v-2.03l1.43-1.42h2.03l1.42 1.42v2.03l-1.42 1.42z" fill="#000000" stroke-width="none" opacity="1"></path><path id="SvgjsPath12868" d="m122.5 96.65-3.2-2.11-3.75.77-2.11 3.2.77 3.75 3.2 2.11 3.75-.77 2.11-3.2-.77-3.75zm-4.21 5.4.2 1.61-.52.11v-1.72h.32zm.16 0h.35l.42 1.46-.57.12-.2-1.58zm.51 0h.38l.73 1.29-.7.14-.41-1.43zm.34-.31h-1.89l-1.34-1.34v-1.89l1.34-1.34h1.89l1.34 1.34v1.89l-1.34 1.34zm-3.61.93 1-1.2.23.23c-.24.47-.54 1.08-.68 1.34l-.55-.37zm.89-1.31-1.02 1.23-.48-.32 1.2-1.22.3.31zm.47.46.21.21-.25 1.51-.63-.42c.1-.18.29-.55.67-1.3zm-2.61-.8-.16-.77 1.48-.21v.37l-1.32.61zm1.32-1.6-1.67-.1-.11-.52 1.77.2v.42zm0 .16v.31l-1.51.21-.13-.61 1.64.09zm.1-1.3-1.47-.34.64-.97 1.28.87-.45.44zm-.25-2.21c.16.16.52.48 1.3 1.15l-.51.51-1.3-.89.51-.77zm2.46.79c-.05-.34-.18-1.12-.24-1.53l.67-.14v1.67h-.43zm-.15 0h-.33l-.77-1.33.86-.18c.08.54.19 1.2.24 1.51zm3.03 1.87 1.42-.33.13.63-1.55.1v-.4zm0-.16v-.19l-.25-.25 1.39-1.08.25 1.2-1.39.32zm-.36-.55-.33-.33 1.16-1.18.61.4-1.44 1.11zm-.44-.44-.45-.45.66-1.32.92.61-1.13 1.16zm-.56-.57-.16-.16h-.24l.21-1.69.84.55-.65 1.3zm.64 4.25 1.13 1.19-.36.54-1.1-1.4.33-.33zm.11-.12.22-.22 1.34.7-.45.68-1.11-1.16zm.33-.33.28-.28v-.1c.31.08.94.26 1.46.42l-.43.65-1.31-.69zm.28-1.52 1.59-.1.12.57-1.7-.06v-.41zm-1.7-4.22-.22 1.78h-.38v-1.7l.55-.11.05.03zm-2.59.5.75 1.29h-.13l-.25.25c-.49-.42-1.13-.98-1.33-1.17l.13-.2.83-.17zm-2.37 2.51 1.47.34v.43l-1.81-.21-.01-.04.35-.52zm.18 3.1 1.32-.61.37.37-1.22 1.24-.31-.2-.16-.8zm2.68 2.46.26-1.58h.4v1.75l-.31.06-.35-.23zm3.08-.33-.74-1.32.3-.3 1.12 1.43-.03.05-.65.14zm2.27-2.6c-.53-.15-1.22-.36-1.55-.44v-.41l1.74.06.08.38-.27.41z" fill="#258b8c" stroke-width="none" opacity="1"></path><path id="SvgjsPath12869" d="m117.91 97.05-.87-.25-.65.62.21.88.87.26.65-.63z" fill="#ffffff" stroke-width="none" opacity="1"></path><path id="SvgjsPath12870" d="m119.86 100.84-.53-.3-.54.3v.62l.54.3.53-.3z" fill="#ffffff" stroke-width="none" opacity="1"></path></g></g></g><g id="svga-group-eyesfront-right"><path id="SvgjsPath12916" d="M124.3 86.6h-10.9l-7.7 7.9v11.1l7.7 7.9h10.9l7.7-7.9V94.5l-7.7-7.9zm-1.9 17.3s-3.7 0-7.5-.8c-2.7-.6-5.5-1.7-7-2.3l4.3-3.8s12.6-.7 12.9-.7c.2 0 6.2 4.1 5.9 4.2-.2.2-6.2 3-8.6 3.4z" fill="#875732" stroke-width="none" opacity="1" stroke="none"></path><path id="SvgjsPath12919" d="m107.7 99.9 3.9-5.3 10.9-.1 2.3 1.3-3.5-.8-9.3.5z" fill="#784620" stroke-width="none" opacity="1" stroke="none"></path><path id="SvgjsPath12920" d="m132.5 101.7-1.8-.2 3.1-1.2-2.1-.4-.5-.3 1.2-.3-1.7-.1-1.2-.8 1.9-.4-2.4.1-1.2-.8 1.3-.4-1.8.1-.7-.5.8-.3h-1.3l-.3-.1-13.6.5-4.9 4.3.8-.1 4.3-3.6 12.6-.4 4.6 3.6-7.2 3.5 1.9-.1.9-.4h1.9l-1.1-.3 1.6-.5 2.5-.1-1.5-.3 1.3-.5z" fill="#1b1929" stroke-width="none" opacity="1" stroke="none"></path></g></g></g><g id="svga-group-facehighlight-single"></g><g id="svga-group-eyebrows-left-move" transform="matrix(1,0,0,1,0,0)"><g id="svga-group-eyebrows-left-rotate" transform="matrix(1,0,0,1,0,0)"><g id="svga-group-eyebrows-left" transform="matrix(1,0,0,1,0,0)"><path id="SvgjsPath12977" d="m91.7 88.1.1 1.9-1.7 1.7-1.8-.7s-5.5-2.8-5.8-2.8S76 88 76 88l-7.3 2.9-1.3-1.1 6.1-5.1 6.6-.9 7.9 2.1 3.7 2.2z" fill="#2a232b" stroke-width="none" opacity="1"></path><path id="SvgjsPath12978" d="m80.1 83.8 1 .3 1.7 3.6-3-3.8.3-.1zm-10.8 4.4 4.1-.6-5.5 1.8 1.4-1.2zm20.3 2.1 1-2.9.9.5-1.9 2.4zm-.4-3.8-.6 3-.4-3.6 1 .6zM73.1 85l2.3.5-3.2.2.9-.7zm4-.8 2 2-3.1-1.9 1.1-.1z" fill="#3a353a" stroke-width="none" opacity="1"></path></g></g></g><g id="svga-group-eyebrows-right-move" transform="matrix(1,0,0,1,0,0)"><g id="svga-group-eyebrows-right-rotate" transform="matrix(1,0,0,1,0,0)"><g id="svga-group-eyebrows-right" transform="matrix(1,0,0,1,0,0)"><path id="SvgjsPath12979" d="m108.3 88.1-.1 1.9 1.7 1.7 1.8-.7s5.5-2.8 5.8-2.8 6.5-.2 6.5-.2l7.4 2.9 1.3-1.1-6.1-5.1-6.6-.9-7.9 2.1-3.8 2.2z" fill="#2a232b" stroke-width="none" opacity="1"></path><path id="SvgjsPath12980" d="m119.9 83.8-1 .3-1.7 3.6 3-3.8-.3-.1zm10.8 4.4-4.1-.6 5.5 1.8-1.4-1.2zm-20.3 2.1-1-2.9-.9.5 1.9 2.4zm.4-3.8.6 3 .4-3.6-1 .6zm16.1-1.5-2.3.5 3.2.2-.9-.7zm-4-.8-2 2 3.2-1.8-1.2-.2z" fill="#3a353a" stroke-width="none" opacity="1"></path></g></g></g><g id="svga-group-nose-single-move" transform="matrix(1,0,0,1,0,0)"><g id="svga-group-nose-single" transform="matrix(1,0,0,1,0,0)"><path id="SvgjsPath12951" d="m93.25 113.14-3.28 4.66 3.08 3.94 4.12-2.2-4.12 1.3-2.25-3.3z" fill="#683712" stroke-width="none" opacity="1" transform="translate(0 2)" stroke="none"></path><path id="SvgjsPath12952" d="m106.75 113.14 3.28 4.66-3.08 3.94-4.12-2.2 4.12 1.3 2.25-3.3z" fill="#683712" stroke-width="none" opacity="1" transform="translate(0 2)" stroke="none"></path><path id="SvgjsPath12953" d="m104.97 117.51.95-2.11-1.74 2.4-4.18 2-4.18-2-1.74-2.4.95 2.11-2.3 1.13.84 1.23 2.67-1.15 3.76 2.05 3.76-2.05 2.67 1.15.84-1.23z" fill="#683712" stroke-width="none" opacity="1" transform="translate(0 2)" stroke="none"></path><path id="SvgjsPath12954" d="m96.3 110.5 1.55-.44 5.65.18-1.5-.8-4.6-.4z" fill="#683712" stroke-width="none" opacity="1" transform="translate(0 2)" stroke="none"></path><path id="SvgjsPath12955" d="m97.45 102.28-.8 6.94.75-.93.49-3.62z" fill="#683712" stroke-width="none" opacity="1" transform="translate(0 2)" stroke="none"></path><path id="SvgjsPath12956" d="m95.73 112.93 2.2-1.63 4.29-.05 1.94 1.95-1.37 3.75-3.04.53-2.74-.57z" fill="#8f603c" stroke-width="none" opacity="1" transform="translate(0 2)" stroke="none"></path></g></g><g id="svga-group-hair-front" transform="matrix(1,0,0,1,0,0)"><path id="SvgjsPath13016" d="m61 99.3-6.1-11.6L53 72.1l-10.6-1.3-5.1-8.4 2.8-14.8 7.1-7.2 5.1-10.1 15.2-7.8 12.3 3.1 1.5 2.6 5 6.5-.4 3.4 8.7.2 4.8 1.1 4-1.1 10.6.7-.4-3.6 6.3-7.9 9.1 1.1 13.3-.2 9.7 7 2.7 7.3 8 13.3-.2 6.6-4.2 6.3-5.3 3-6.7.2-.7 12.2-1 4.9-5.3 8.9.6-14.4-5-10.6-11.4-9.5-14.4-2.5-8 2.8-10.4-2.8-12.6 3.4-11 9.3L61 83.9z" fill="#2a232b" stroke-width="none" opacity="1" stroke="none"></path><path id="SvgjsPath13017" d="m85.5 59-6.1 10.2 4.9 13.7-2.1-12.7 7.4-10.1h5.1l6.3 3.8-6-6.2-9.5 1.3zM70.2 44.1l-3.6-14.6 1.7 13.4L61 54.4l-9.2-.8-2.6-9.6 1.5 11 11.5 1.5 8-12.4zm-29.8 8.7 3.2 12-1.5-11.7 5.4-9.5-7.1 9.2zm111.8-12.4-5.9-2.9-9.8 2.9-.7 10.7 9.3 8.5-7.6-9.2 1-7.8 6.8-3 5.9 1.9 3.6 5.1-2.6-6.2zm-38.6 19.8 13.9-.7 7.1-6.1-7.8 4.6-13.2 2.2zm-2.7-12.7-7.6 4.8 8.1-2.9 17.1-1-17.6-.9zM73.1 60.4l4.7 2.5-8.6-8.1 3.9 5.6zm-10.5.7c-.2.5-.7 8.5-.7 8.5l2.9 5.8-1.5-7.4-.7-6.9z" fill="#322c33" stroke-width="none" opacity="1" stroke="none"></path><path id="SvgjsPath13018" d="M77.3 45.9h11.8l11 2.5-4-3.2-8.4-1.9-10.4 2.6zm47.9-1.5-6.1-1.5-11.8 1.7-5.9 4.8 8.9-3.4 14.9-1.6zm.4 8.3-14.4 1.1-10.6 5.5 19.2-2.3 13.1-5.1-7.3.8zm30.8-1.1-6.6-7.4-6.8 1.9-.6 5.5 3.2-3.6 8.7 4.2-.8 7.2 2.9-7.8zM54.1 61.2l2.2-.4h-2.1l1-3.8-1.8 3.8H49l-3.8-8.4 2.1-12-3.9 4-.8 4.2.8 6.7 5.5 7 4.3-.9-3.4 6.9-7 .2-4-3.5 3.6 5.8 6.1.8h.3l3.8-4.7 1.5-5.7zm16.4-9.6 2-1.7 12.5.6 11.2 4.9 3 2.5-5.9-7.8-12.9-1.9-7.8 1.6 9.1-7.9 6.6-3.8L86 38l.4-3.4-4.9-6.5-.9-1.1c-3.8-1.2-9.3-3-13.6-4.2L64.7 24c3.8.8 11.1 2.4 15.9 3.4-1 4.7-2.3 10.1-2.3 10.1s-9.5 2.3-8.9 2.3c.4 0 4.7 1.2 7.8 2l-9.4 6.8-7-2.5-2.5-4.2s2-11.5 3.1-16.3L58.8 27c-2.1 7.2-5.2 18.7-5.2 18.7l8.9 5.9h8zm-5.6 4.8 4.2-3.6-9.6 6.2-7 13 .6.1L55 87.7l6 11.6V83.9l1.8-3-2.6-4.4 1-16.9 3.7-3.2c.1 1.6.7 8.2 1 8.7.2.3 3.1 2.8 5.6 4.9l2.8-2.3-5.3-3.6-4.1-7.7zm54.4-16.6 10.4 6.1-9.3-9.9 3.5-8-4.1-.5-6.3 8 .5 3.5 5.3.8zm22.3-2.8h6.8l5.7 4.2-2.1-5.7-6.6-2.3-12.7 3.6s-.2 13.1-.2 13.7l3-10.1 6.1-3.4zm17.8 28.3-5.9 4.2-4.6-1.1-1.5-3.2 4-2.7s-5.5-.4-6.6-.6-5.7-6.8-5.7-6.8l1.5-9.5-3.2 9.7v.1l-7.1 6.2L124 64l3.5 2.9 5.3-2.6 4.7-8.7.8 3.7 1.9 3c-.8 3.2-1.9 7.7-1.9 8 0 .3-1.5 1.9-3.1 3.4l2.3 4.9 3.6-7.6-.1-7.4 4 6.4-1.3 12.8-4.1 8.2-.3 7.2 5.3-8.9.9-4.9.8-12.2 6.6-.2 5.3-3 4.2-6.3.2-6.7-3.2 9.3zm-69.7-5.2-7.4 10.1 6.9-7.8 5.4-1.2 6.5 2.7-6.3-3.8h-5.1z" fill="#221b23" stroke-width="none" opacity="1" stroke="none"></path></g><g id="svga-group-glasses-single-move" transform="matrix(1,0,0,1,0,0)"><g id="svga-group-glasses-single" transform="matrix(1,0,0,1,0,0)"><path id="SvgjsPath13354" d="m80.85 115.01-6.63-3.63-5.84-5.68-2.76-6.63-.15-5.52 3.39-4.18 5.36-1.34 4.11 1.5 2.52 2.69 2.52-2.69 4.11-1.5 5.36 1.34 3.39 4.18-.15 5.52-2.77 6.63-5.83 5.68z" fill="url(#SvgjsLinearGradient13355)" opacity="1"></path><path id="SvgjsPath13361" d="m119.15 115.01 6.63-3.63 5.84-5.68 2.76-6.63.15-5.52-3.39-4.18-5.36-1.34-4.11 1.5-2.52 2.69-2.52-2.69-4.11-1.5-5.36 1.34-3.39 4.18.15 5.52 2.77 6.63 5.83 5.68z" fill="url(#SvgjsLinearGradient13362)" opacity="1"></path><path id="SvgjsPath13368" d="m134.59 95.43.05-1.92-.03-.03-3.42-4.21-.04-.01-5.4-1.35-4.18 1.54-2.44 2.61-2.49-2.64-4.14-1.51-5.44 1.36-.02.03-3.42 4.21v.04l.06 1.85-3.74-1.13-3.68 1.02.05-1.74v-.04l-3.42-4.21-.02-.03-5.44-1.36-4.14 1.51-2.49 2.64-2.44-2.61-4.18-1.54-5.4 1.35-.04.01-3.42 4.21-.03.03.05 1.92-1.53-.07.46 1.41h1.11l.07 2.31 2.77 6.67 5.86 5.72 6.65 3.65.05.03 6.68-3.66 5.86-5.7 2.79-6.67.09-2.87 3.69-1.02 3.78 1.14.08 2.75 2.79 6.67 5.86 5.7 6.68 3.66.05-.03 6.65-3.65 5.86-5.72 2.77-6.67.07-2.31h1.11l.46-1.41-1.46.07zm-41.37 10.2-5.81 5.65-6.56 3.59-6.56-3.59-5.81-5.65-2.74-6.59-.16-5.46 3.34-4.12 5.29-1.32 4.04 1.48 2.59 2.77 2.59-2.77 4.04-1.48 5.29 1.32 3.34 4.12-.16 5.46-2.72 6.59zm41.04-6.58-2.74 6.59-5.81 5.65-6.56 3.59-6.56-3.59-5.81-5.65-2.74-6.59-.16-5.46 3.34-4.12 5.29-1.32 4.04 1.48 2.59 2.77 2.59-2.77 4.04-1.48 5.29 1.32 3.34 4.12-.14 5.46z" fill="#da6972" stroke-width="none" opacity="1"></path></g></g></g></g></g><rect id="svga-credit-rect" width="200" height="15" x="0" y="185" fill="#ecf0f1" opacity="0.5" style="display: none;"></rect><text id="svga-credit-text" font-family="Avenir Next, Roboto, Helvetica, Arial, sans-serif" font-size="10px" text-anchor="start" font-weight="400" size="10px" anchor="start" weight="400" fill="#333333" x="33.40447998046875" y="182.60824704170227" style="display: none;"><tspan id="SvgjsTspan12267" dy="13" x="33.40447998046875">Created on AvatarMaker.com</tspan></text></g></svg>