<svg xmlns="http://www.w3.org/2000/svg" version="1.1" width="600px" height="600px" viewBox="0 0 200 200" style="overflow:hidden!important;"><defs id="SvgjsDefs17265"></defs><g id="svga-group-wrapper"><g id="svga-group-backs-single"></g><g id="svga-group-humanwrap-move" transform="matrix(1,0,0,1,0,0)"><g id="svga-group-humanwrap" transform="matrix(1,0,0,1,0,0)"><g id="svga-group-hair-back-move" transform="matrix(1,0,0,1,0,0)"><g id="svga-group-hair-back" transform="matrix(1,0,0,1,0,0)"><path id="SvgjsPath18104" d="m56.4 195.5-4.2-50.8-1.8-50.2 2.3-24.8 12.7-21.8 20.1-11.7 15.7.3 14.8.2 14.7 9.2 8.9 12 7.4 20.3 1.2 59.8 1.4 27.6-5.1 30.4-88.1-.5z" fill="#221b23" stroke-width="none" opacity="1"></path><path id="SvgjsPath18105" d="M75.6 51.2S59.1 76.8 57.2 83.7c-1.9 6.9 5 97 5 97l.5-51.9s3.6 43.3 5.3 49.7c1.7 6.5 1-39 1.4-40.9.5-1.9 4.5 35.8 5.3 39.2.7 3.3 49.2 2.4 49.5 1.4.2-1 2.4-35.4 2.6-38 0 0 2.6 28.4 3.6 37.5 0 0 1-25.1 1.4-40.6 0 0 5.5 35.8 5.5 43.5h3.1s1-17.2.7-28.2c-.2-11 .7-33.7.7-33.7s2.6 51.1 2.2 59c0 0 2.2-14.1 2.2-28.2s-1-46.6-1-48.3-2.4-22-4.8-27.5-37.5-24.1-42.8-24.4-22 1.9-22 1.9z" fill="#2a232b" stroke-width="none" opacity="1"></path></g></g><g id="svga-group-humanbody-back"><path id="SvgjsPath17569" d="m168.2 200-4.6-14.2-34.9-13.4-10.8-9.7-1.4-50.5h-33l-1.4 50.5-10.8 9.7-34.9 13.4-4.6 14.2-3 20h142.4z" fill="#d79468" stroke-width="none" opacity="1" stroke="none"></path><path id="SvgjsPath17570" d="m83.5 112.2-1.4 50.5-10.8 9.7-34.9 13.4-4.6 14.2-3 20H39v-20l1.7-13.3 32.1-12.9 14.1-9.5 2-52.1z" fill="#b86934" stroke-width="none" opacity="1" stroke="none"></path></g><g id="svga-group-chinshadow-single"><path id="SvgjsPath17804" d="m117.4 146.9-.9-34.7h-33l-1 38.2 10.7 7 4 1.1 4.1-1.1z" fill="#a9561f" stroke-width="none" opacity="1" stroke="none"></path></g><g id="svga-group-humanbody-front"></g><g id="svga-group-clothes-single"><path id="SvgjsPath17942" d="m100 211.8-21.1-19.4 2.6 27.6h37l2.6-27.6z" fill="#ededed" stroke-width="none" opacity="1"></path><path id="SvgjsPath17943" d="m82.2 159.1-4.2 3.8-14.9 9.2.5.5-26 11.2-3 .7-4.2 15.6-2.8 19.9h56.5l-4.8-53.4 2.8-3.9z" fill="#601090" stroke-width="none" opacity="1" stroke="none"></path><path id="SvgjsPath17944" d="m117.8 159.1 4.2 3.8 14.9 9.2-.5.5 26 11.2 3 .7 4.2 15.6 2.8 19.9h-56.5l4.8-53.4-2.8-3.9z" fill="#601090" stroke-width="none" opacity="1" stroke="none"></path><path id="SvgjsPath17945" d="m63.1 172.1.5.5-26 11.2-3 .7-4.2 15.6-2.8 19.9H33l1.1-19.6 2.1-11.6 1.8-.4 41.3-19 .1-2.7 2.8-3.9.1-3.6-4.2 3.7-15 9.2zm73.8 0-.5.5 26 11.2 3 .7 4.2 15.6 2.8 19.9H167l-1.1-19.6-2.1-11.6-1.8-.4-41.3-19-.1-2.7-2.8-3.9-.1-3.6 4.2 3.7 15 9.2z" fill="#510181" stroke-width="none" opacity="1" stroke="none"></path><path id="SvgjsPath17946" d="m74.4 171.6-9.9 10.9 8.4 37.6h-1.6l-8.8-37.6 7.2-6.9-6.2-3 6.9 1.9 4-2.9zm7.8-12.5-5 8.6 6.5 52.3h.4l-4.8-53.4 2.8-3.9.1-3.6zm-38.5 40-7.1-13.8 6 15.4 2.3 19.3h1.9l-3.1-20.9zm81.9-27.5 9.9 10.9-8.4 37.6h1.6l8.8-37.6-7.2-6.9 6.2-3-6.9 1.9-4-2.9zm-7.8-12.5 5 8.6-6.5 52.3h-.4l4.8-53.4-2.8-3.9-.1-3.6zm38.5 40 7.1-13.8-6 15.4-2.3 19.3h-1.9l3.1-20.9z" fill="#470071" stroke-width="none" opacity="1" stroke="none"></path><path id="SvgjsPath17947" d="m73.7 173.4-8.2 9.4 8.5 36.6-5.9-36.6 5.6-9.4zm52.6 0 8.2 9.4-8.5 36.6 5.9-36.6-5.6-9.4z" fill="#70229f" stroke-width="none" opacity="1" stroke="none"></path></g><g id="svga-group-head" transform="matrix(1,0,0,1,0,0)"><g id="svga-group-ears-left-move" transform="matrix(1,0,0,1,0,0)"><g id="svga-group-ears-left" transform="matrix(1,0,0,1,0,0)"><path id="SvgjsPath17758" d="m59.4 92.2-5-3.9-4.1 14.6 2.7 10.2 5.7 5.1 3.6-.9 2.8-7.6-1.4-12.6z" fill="#d79468" stroke-width="none" opacity="1" stroke="none"></path><path id="SvgjsPath17759" d="m52.4 102 3.2-6.3 2.8 5.5.5 8s-3.1-.7-3.2-1c0-.3 1.2-6.5 1.1-6.8-.1-.3-1-3.6-1.2-3.5-.1.1-3.2 4.1-3.2 4.1z" fill="#b86934" stroke-width="none" opacity="1" stroke="none"></path><path id="SvgjsPath17760" d="m61 113.6-1.4-16.5-5.2-8.8 5.9 2.8 3.4 6 1.4 12.6-2.8 7.6-3.6.9-5.7-5.1s5.4 2.1 5.5 2.1c.3.1 2.5-1.6 2.5-1.6z" fill="#c87d4d" stroke-width="none" opacity="1" stroke="none"></path></g></g><g id="svga-group-ears-right-move" transform="matrix(1,0,0,1,0,0)"><g id="svga-group-ears-right" transform="matrix(1,0,0,1,0,0)"><path id="SvgjsPath17761" d="m140.6 92.2 5-3.9 4.1 14.6-2.7 10.2-5.7 5.1-3.6-.9-2.8-7.6 1.4-12.6z" fill="#d79468" stroke-width="none" opacity="1" stroke="none"></path><path id="SvgjsPath17762" d="m147.6 102-3.2-6.3-2.8 5.5-.5 8s3.1-.7 3.2-1-1.2-6.5-1.1-6.8c.1-.3 1-3.6 1.2-3.5.1.1 3.2 4.1 3.2 4.1z" fill="#b86934" stroke-width="none" opacity="1" stroke="none"></path><path id="SvgjsPath17763" d="m139 113.6 1.4-16.5 5.2-8.8-5.9 2.8-3.4 6-1.4 12.6 2.8 7.6 3.6.9 5.7-5.1s-5.4 2.1-5.5 2.1c-.3.1-2.5-1.6-2.5-1.6z" fill="#c87d4d" stroke-width="none" opacity="1" stroke="none"></path></g></g><g id="svga-group-faceshape-wrap" transform="matrix(1,0,0,1,0,0)"><g id="svga-group-faceshape-single"><path id="SvgjsPath17794" d="M136.8 61c-6.7-11.2-19-18.9-19-18.9-7-1.5-17.8-2.2-17.8-2.2s-10.8.8-17.8 2.2c0 0-12.4 7.6-19 18.9 0 0-5 14-5.2 23.9l2.1 23 6.6 19.2 6.3 8.4 23 15 4 1 4-1 22.9-14.9 6.3-8.4 6.6-19.2 2.1-23c-.2-9.9-5.1-24-5.1-24z" fill="#d79468" stroke-width="none" opacity="1" stroke="none"></path><path id="SvgjsPath17795" d="m93.8 147.5-17.6-13.8-6.2-8.1-6.2-17.5-3-23 6-22.3 17-18 16-3.3 18 .6c-7-1.5-17.8-2.2-17.8-2.2s-10.8.8-17.8 2.2c0 0-12.4 7.6-19 18.9 0 0-5 14-5.2 23.9l2.1 23 6.6 19.2 6.3 8.4 23 15 4 1 4-1-3.7.3-6.5-3.3z" fill="#b86934" stroke-width="none" opacity="1" stroke="none"></path></g></g><g id="svga-group-mouth-single-move" transform="matrix(1,0,0,1,0,0)"><g id="svga-group-mouth-single" transform="matrix(1,0,0,1,0,0)"><path id="SvgjsPath17746" d="m89.05 131.51 3.93 5.83 7.86 1.79 8.03-1.68 4.22-5.48-10-3.06L92.58 130z" fill="#A06B59" stroke-width="none" opacity="1" transform="translate(0 3)" stroke="none"></path><path id="SvgjsPath17747" d="m86.52 132.54 9.16-6.15 4.58 1.82s4.34-1.76 4.52-1.76c.18 0 9.95 6.33 9.95 6.33l-10.32-1.38-4.03 2.13-4.15-2.38-9.71 1.39z" fill="#915642" stroke-width="none" opacity="1" transform="translate(0 3)" stroke="none"></path><path id="SvgjsPath17748" d="m101.09 138.07 7.01-1.33 2.78-3.37-3.24 2.78z" fill="#bf9c90" stroke-width="none" opacity="1" transform="translate(0 3)" stroke="none"></path></g></g><g id="svga-group-eyes-left-move" transform="matrix(1,0,0,1,0,0)"><g id="svga-group-eyes-left" transform="matrix(1,0,0,1,0,0)"><g id="svga-group-eyesback-left"><path id="SvgjsPath18598" d="M92 100.8 87.7 97s-12.6-.7-12.9-.7-6.2 4.1-5.9 4.2c.2.2 6.3 2.9 8.7 3.4 0 0 3.7 0 7.5-.8 2.7-.6 5.5-1.7 6.9-2.3z" fill="#ffffff" stroke-width="none" opacity="1"></path></g><g id="svga-group-eyesiriswrapper-left" transform="matrix(1,0,0,1,0,0)"><g id="svga-group-eyesiriscontrol-left" transform="matrix(1,0,0,1,0,0)"><g id="svga-group-eyesiris-left" transform="matrix(1,0,0,1,0,0)"><path id="SvgjsPath18762" d="m78.1 102.2-.7-4.4 3.5-3 4.2 1.6.8 4.5-3.5 2.9z" fill="#9b1d1b" stroke-width="none" opacity="1"></path><path id="SvgjsPath18763" d="m80.9 95.3 3.9 1.4.7 4.1-3.2 2.6-3.9-1.4-.7-4.1 3.2-2.6m-.1-.9L77 97.6l.9 4.9 4.7 1.7 3.8-3.2-.9-4.9-4.7-1.7z" fill="#8c0c0a" stroke-width="none" opacity="1"></path><path id="SvgjsPath18764" d="m80.8 94.7 4.5 1.6.8 4.7-3.7 3.1-4.4-1.6-.8-4.7 3.6-3.1m-.1-.6-4.1 3.4.9 5.2 5 1.8 4.1-3.4-.9-5.2-5-1.8z" fill="#7c0200" stroke-width="none" opacity="1"></path><path id="SvgjsPath18765" d="m78.9 100.2.6-2.8 2.7-.8 2.1 1.8-.5 2.8-2.7.9z" fill="#000000" stroke-width="none" opacity="1"></path><path id="SvgjsPath18766" d="M79.8 97h1.6v1.6h-1.6V97zm2.2 4h.9v.9H82v-.9z" fill="#ffffff" stroke-width="none" opacity="1"></path></g></g></g><g id="svga-group-eyesfront-left"><path id="SvgjsPath18606" d="M68 94.5v11.1l7.7 7.9h10.9l7.7-7.9V94.5l-7.7-7.9H75.7L68 94.5zm.9 6.1c-.2-.2 5.7-4.2 5.9-4.2.2 0 12.9.7 12.9.7l4.3 3.8c-1.4.6-4.2 1.7-7 2.3-3.8.8-7.5.8-7.5.8-2.3-.5-8.3-3.3-8.6-3.4z" fill="#d79468" stroke-width="none" opacity="1"></path><path id="SvgjsPath18607" d="m92.3 99.9-3.9-5.3-10.9-.1-2.3 1.3 3.5-.8 9.3.5z" fill="#c87d4d" stroke-width="none" opacity="1"></path><path id="SvgjsPath18608" d="m67.5 101.7 1.8-.2-3.1-1.2 2.1-.4.5-.3-1.2-.3 1.7-.1 1.2-.8-1.9-.4 2.4.1 1.2-.8-1.3-.4 1.8.1.7-.5-.8-.3h1.3l.3-.1 13.6.5 4.9 4.3-.8-.1-4.3-3.6-12.6-.4-4.6 3.6 7.1 3.6-1.8-.2-.9-.4h-1.9l1.1-.3-1.6-.5-2.5-.1 1.5-.3-1.3-.5z" fill="#210d34" stroke-width="none" opacity="1"></path></g></g></g><g id="svga-group-eyes-right-move" transform="matrix(1,0,0,1,0,0)"><g id="svga-group-eyes-right" transform="matrix(1,0,0,1,0,0)"><g id="svga-group-eyesback-right"><path id="SvgjsPath18599" d="m108 100.8 4.3-3.8s12.6-.7 12.9-.7 6.2 4.1 5.9 4.2c-.2.2-6.3 2.9-8.7 3.4 0 0-3.7 0-7.5-.8-2.7-.6-5.5-1.7-6.9-2.3z" fill="#ffffff" stroke-width="none" opacity="1"></path></g><g id="svga-group-eyesiriswrapper-right" transform="matrix(1,0,0,1,0,0)"><g id="svga-group-eyesiriscontrol-right" transform="matrix(1,0,0,1,0,0)"><g id="svga-group-eyesiris-right" transform="matrix(1,0,0,1,0,0)"><path id="SvgjsPath18767" d="m114.9 102.2-.8-4.4 3.5-3 4.3 1.6.7 4.5-3.5 2.9z" fill="#9b1d1b" stroke-width="none" opacity="1"></path><path id="SvgjsPath18768" d="m117.7 95.3 3.9 1.4.7 4.1-3.2 2.6-3.9-1.4-.7-4.1 3.2-2.6m-.2-.9-3.8 3.2.9 4.9 4.7 1.7 3.8-3.2-.9-4.9-4.7-1.7z" fill="#8c0c0a" stroke-width="none" opacity="1"></path><path id="SvgjsPath18769" d="m117.6 94.7 4.5 1.6.8 4.7-3.6 3-4.5-1.6-.8-4.7 3.6-3m-.2-.6-4.1 3.4.9 5.2 5 1.8 4.1-3.4-.9-5.2-5-1.8z" fill="#7c0200" stroke-width="none" opacity="1"></path><path id="SvgjsPath18770" d="m115.7 100.2.5-2.8 2.7-.8 2.2 1.8-.6 2.8-2.7.9z" fill="#000000" stroke-width="none" opacity="1"></path><path id="SvgjsPath18771" d="M116.6 97h1.6v1.6h-1.6V97zm2.1 4h.9v.9h-.9v-.9z" fill="#ffffff" stroke-width="none" opacity="1"></path></g></g></g><g id="svga-group-eyesfront-right"><path id="SvgjsPath18609" d="M124.3 86.6h-10.9l-7.7 7.9v11.1l7.7 7.9h10.9l7.7-7.9V94.5l-7.7-7.9zm-1.9 17.3s-3.7 0-7.5-.8c-2.7-.6-5.5-1.7-7-2.3l4.3-3.8s12.6-.7 12.9-.7c.2 0 6.2 4.1 5.9 4.2-.2.2-6.2 3-8.6 3.4z" fill="#d79468" stroke-width="none" opacity="1"></path><path id="SvgjsPath18612" d="m107.7 99.9 3.9-5.3 10.9-.1 2.3 1.3-3.5-.8-9.3.5z" fill="#c87d4d" stroke-width="none" opacity="1"></path><path id="SvgjsPath18613" d="m132.5 101.7-1.8-.2 3.1-1.2-2.1-.4-.5-.3 1.2-.3-1.7-.1-1.2-.8 1.9-.4-2.4.1-1.2-.8 1.3-.4-1.8.1-.7-.5.8-.3h-1.3l-.3-.1-13.6.5-4.9 4.3.8-.1 4.3-3.6 12.6-.4 4.6 3.6-7.2 3.5 1.9-.1.9-.4h1.9l-1.1-.3 1.6-.5 2.5-.1-1.5-.3 1.3-.5z" fill="#210d34" stroke-width="none" opacity="1"></path></g></g></g><g id="svga-group-facehighlight-single"></g><g id="svga-group-eyebrows-left-move" transform="matrix(1,0,0,1,0,0)"><g id="svga-group-eyebrows-left-rotate" transform="matrix(1,0,0,1,0,0)"><g id="svga-group-eyebrows-left" transform="matrix(1,0,0,1,0,0)"><path id="SvgjsPath18810" d="m90.76 88.76-1.2 1.51-15.41-5.49-8.02 2.71 8.82-4.13z" fill="#2a232b" stroke-width="none" opacity="1"></path></g></g></g><g id="svga-group-eyebrows-right-move" transform="matrix(1,0,0,1,0,0)"><g id="svga-group-eyebrows-right-rotate" transform="matrix(1,0,0,1,0,0)"><g id="svga-group-eyebrows-right" transform="matrix(1,0,0,1,0,0)"><path id="SvgjsPath18811" d="m109.24 88.76 1.2 1.51 15.41-5.49 8.02 2.71-8.82-4.13z" fill="#2a232b" stroke-width="none" opacity="1"></path></g></g></g><g id="svga-group-nose-single-move" transform="matrix(1,0,0,1,0,0)"><g id="svga-group-nose-single" transform="matrix(1,0,0,1,0,0)"><path id="SvgjsPath17904" d="m107.34 112.27-1.54-3.59.51 4.61s.68 6.41.68 6.75-1.88-1.03-1.88-1.03l.51-.68-.77-.43-4.86 3.5-4.86-3.5-.77.43.51.68s-1.88 1.37-1.88 1.03.68-6.75.68-6.75l.17-1.52 1.45-6.36-1.3 2.02-1.35 4.83-.6 9.31 4.1-2.14 3.83 3.5 3.83-3.5 4.1 2.14-.56-9.3z" fill="#b86934" stroke-width="none" opacity="1" transform="translate(0 2)"></path><path id="SvgjsPath17905" d="m97.13 110.76 4.46-1.25 2.8 2.39.36.88-4.05-2.39z" fill="#b86934" stroke-width="none" opacity="1" transform="translate(0 2)"></path><path id="SvgjsPath17906" d="m96.3 113.04 4.14-1.25 3.17 1.66.36 3.84-3.99.67z" fill="#dfa077" stroke-width="none" opacity="1" transform="translate(0 2)"></path></g></g><g id="svga-group-hair-front" transform="matrix(1,0,0,1,0,0)"><path id="SvgjsPath18102" d="m101.2 38-24.8 5-17.5 20.1L54 85.2l3.6 13.1 4.3 33-.2-39.8 4 26.7.6-41.8 2.5 17.1 2.5-27.7 3.3-9.1-1.6 23 4.7-16.4-.7 18.8 4.2-16.3 1.7 18.3L90.1 52l-3 27 3.2-14.5-.2 20.6 3.2-19.6.7 18.6 1.5-8.1.7 5.6 2-17.6 1 19.4s4.5-13.5 5-22.9l1 21.1 4-13.1 1.7-13.1 2 12.6.5 14.1s1.2-4.3 2.2-10.5c.3-1.7.6-3.6.8-5.5 0 0 1.2 4.8 2.1 10.2.7 3.9 1.2 8 1.1 10.9 0 0 2-5.9 2.8-15 .4-3.9.5-8.4.2-13.3l3.5 28.3 1.2-17.1s3.2 9.9 3.5 18.8l1.4-12.2s.2-8.2-.4-12c0 0 3.2 26.7 1.7 44.3 0 0 1.3-5.1 2.2-11.9.4-3 1.3-8.1 1.4-11.5l1.6 14-1.2 23.1 5.1-24.3 2.6-20.3-8.1-20.5L122.7 42l-21.5-4z" fill="#2a232b" stroke-width="none" opacity="1"></path><path id="SvgjsPath18103" d="m117.1 43.1 4.4 2.7 14.6 11.8-.1 18.1-3-16-4.4-4.8.9 4.8s.8 4.9.9 7.8l-4.9-11.8-6.1-7.8s.5 3.1.9 7.2.8 9.3.6 13.4c0 0-2.2-16.3-3.3-18.4 0 0-.2 8.3-.3 10.1-.2 1.8-2.7-12.5-2.7-12.5l-.5 6-2.3-13 5.3 2.4zm-6.6-1.2s-.8 15.6-2 20.1c0 0-1.2-12.4 2-20.1zm-14.3-.7-1.9 5.5S91.5 57 91.6 62.4l3.1-11.2s-.5 11.8.2 17.4c0 0 .9-6.1 1.7-12.1.4-3.1.8-6.2.9-8.4 0 0 2.4 12.5 2.5 16.4 0 0 1.4-13 1.4-19.9 0 0 1.4 6.3 1.5 10.7l1.5-13.7s.9 6.1 1 5.7c.1-.4 1.7-6.2 1.7-6.2l-6.1-.6-4.8.7zm-4.7 2.7-3.7 7.5s-3 7-3.6 9.9c0 0 .2-4.8 1.1-10 0 0-4.2 6.8-5.1 11.4l1.7-9.7s1.7-4.4 3.2-6.5l-.4 2.5 6.8-5.1z" fill="#322c33" stroke-width="none" opacity="1"></path></g><g id="svga-group-glasses-single-move" transform="matrix(1,0,0,1,0,0)"><g id="svga-group-glasses-single" transform="matrix(1,0,0,1,0,0)"><path id="SvgjsPath18874" d="m66.5 96.1.5 5.3 3.6 4.6 9.5 2 7.7-1 6-4 1.9-5.9-3.2-3-8.2-1.1h-6.2l-5.1-.1-4.2.9-2.3 2.3z" fill="#ffffff" stroke-width="none" opacity="0.44"></path><path id="SvgjsPath18875" d="m133.5 96.1-.5 5.3-3.6 4.6-9.5 2-7.7-1-6-4-1.9-5.9 3.2-3 8.2-1.1h6.2l5.1-.1 4.2.9 2.3 2.3z" fill="#ffffff" stroke-width="none" opacity="0.44"></path><path id="SvgjsPath18876" d="M95.8 96.8s3.7-1.6 8.3 0l.2 1s-5.5-.8-8.7.1l.2-1.1z" fill="#1d1d1d" stroke-width="none" opacity="1"></path><path id="SvgjsPath18877" d="m92.6 93.7-8.3-1.1h-6.2l-5.1-.1-4.3.9-2.1 2.3H64v2h2.3v.1l.4 3.8 3.8 4.8 9.6 2h.1l7.7-1 6.2-4.1 2-6.2-3.5-3.4zm.8 9-5.8 3.9-7.5 1-9.3-2-3.5-4.4-.5-5 2-2.2 4-.8 5.1.1h6.2l8 1.1 3 2.8-1.7 5.5zM104 97l2 6.2 6.2 4.1 7.7 1h.1l9.6-2 3.8-4.8.4-3.8v-.1h2.3v-2h-2.5l-2.1-2.3-4.3-.9-5.1.1h-6.2l-8.3 1.1L104 97zm.8.2 3-2.8 8-1.1h6.2l5.1-.1 4 .8 2 2.2-.5 5-3.5 4.4-9.3 2-7.5-1-5.8-3.9-1.7-5.5z" fill="#2c2c2c" stroke-width="none" opacity="1"></path></g></g></g></g></g><rect id="svga-credit-rect" width="200" height="15" x="0" y="185" fill="#ecf0f1" opacity="0.5" style="display: none;"></rect><text id="svga-credit-text" font-family="Avenir Next, Roboto, Helvetica, Arial, sans-serif" font-size="10px" text-anchor="start" font-weight="400" size="10px" anchor="start" weight="400" fill="#333333" x="33.40447998046875" y="182.60824704170227" style="display: none;"><tspan id="SvgjsTspan17313" dy="13" x="33.40447998046875">Created on AvatarMaker.com</tspan></text></g></svg>