<svg xmlns="http://www.w3.org/2000/svg" version="1.1" width="600px" height="600px" viewBox="0 0 200 200" style="overflow:hidden!important;"><defs id="SvgjsDefs71368"></defs><g id="svga-group-wrapper"><g id="svga-group-backs-single"><path id="SvgjsPath72144" d="M0 0h200v200H0V0z" fill="#eaeaea" stroke-width="none" opacity="1" stroke="none"></path></g><g id="svga-group-humanwrap-move" transform="matrix(1,0,0,1,0,0)"><g id="svga-group-humanwrap" transform="matrix(1,0,0,1,0,0)"><g id="svga-group-hair-back-move" transform="matrix(1,0,0,1,0,0)"><g id="svga-group-hair-back" transform="matrix(1,0,0,1,0,0)"></g></g><g id="svga-group-humanbody-back"><path id="SvgjsPath71769" d="M166.5 181.1c-10.9-6.6-27.6-8.4-35-12.1-4.9-2.5-9.1-4.7-8.9-17.8s1.9-42.4 1.9-42.4H75.4s1.6 29.4 1.9 42.4-4.2 15.6-8.9 17.8c-7.4 3.5-24.1 5.4-35 12.1-10.8 6.6-10 18.9-10 18.9v19.7h153.3V200c-.1 0 .7-12.3-10.2-18.9z" fill="#cb8d60" stroke-width="none" opacity="1" stroke="none"></path></g><g id="svga-group-chinshadow-single"><path id="SvgjsPath72013" d="M75.3 163.1c10.5 6.8 14.6 11.7 24.7 11.7 10 0 14.1-4.9 24.6-11.7-1.3-2.5-2.1-6.2-2-11.9.2-13.1 1.9-42.4 1.9-42.4H75.4s1.6 29.4 1.9 42.4c.1 5.7-.6 9.4-2 11.9z" fill="#ac642f" stroke-width="none" opacity="0.65" stroke="none"></path></g><g id="svga-group-humanbody-front"><path id="SvgjsPath71770" d="M78.7 156.8c.5 4.8 1.7 9.4 3.1 13.9.8 2.3 1.6 4.6 2.6 6.9.8 2 1.7 4.2 3.1 5.9.3.4 1 0 .9-.5-.5-2.2-1.6-4.3-2.4-6.4-.9-2.2-1.7-4.4-2.5-6.6-1.5-4.4-2.8-8.9-4.1-13.3-.2-.4-.8-.3-.7.1zm41.3-1c-1.3 8.2-3.9 16.1-5.4 24.2-.1.4.4.5.6.2 3.1-7.7 4.1-16.1 5.1-24.3-.1-.2-.3-.2-.3-.1zm-25.8 11.9c-.9 3.6 1.9 8.6 6.2 7.6.5-.1.4-.8 0-1-1.4-.5-2.9-.9-3.9-2.1-1.1-1.2-1.5-2.9-1.4-4.5 0-.4-.8-.5-.9 0z" fill="#ac642f" stroke-width="none" opacity="1" stroke="none"></path><path id="SvgjsPath71771" d="M177.3 219.7c-.1-6.6-.3-13.1-.3-19.7l-.3-.3c.1 0 .1 0 .2.1s.1.2.1.1v-1.4c0-.5-.1-.9-.1-1.4-.1-.9-.3-1.9-.5-2.8-.5-1.8-1.1-3.6-2-5.3-1.7-3.4-4.4-6.2-7.7-8.1-3.6-2.2-7.6-3.8-11.6-5.1-4-1.3-8.1-2.4-12.1-3.5-4-1.2-8.1-2.2-11.8-4.2-1.9-1-3.6-2.1-4.8-3.6-1.2-1.6-1.9-3.5-2.3-5.5-.8-4-.4-8.2-.3-12.4l.7-12.6 1.5-25.2.1-1.4h-1.4c-8.2 0-16.4 0-24.6.1l-24.6.3h-.9l.1.9c.8 11.9 1.6 23.8 2.1 35.7.1 3 .3 6 .2 8.9-.1 2.9-.4 5.9-1.6 8.6-.6 1.3-1.4 2.5-2.4 3.5s-2.3 1.8-3.6 2.4c-2.6 1.3-5.4 2.2-8.3 3-5.8 1.5-11.6 2.8-17.3 4.7-2.8.9-5.7 2-8.4 3.4-1.3.7-2.7 1.4-4 2.4-1.3.9-2.4 1.9-3.5 3.1-2.1 2.3-3.6 5.2-4.5 8.1-.5 1.5-.8 3-1 4.6-.1.8-.1 1.6-.1 2.4v2.3l-.2 17.9v1.3h1.4l38.3.2c12.8.1 25.5.1 38.3 0 12.8-.1 25.6-.1 38.3-.3 12.8-.2 25.6-.5 38.3-.7h.6v-.5zm-77.2-1.6H61.8l-37 .2-.1-16.6v-2.2c0-.7 0-1.4.1-2.1.1-1.4.4-2.8.8-4.2.8-2.7 2.1-5.3 3.9-7.5.9-1.1 2-2.1 3.1-2.9 1.1-.9 2.4-1.6 3.7-2.3 2.6-1.4 5.3-2.5 8.1-3.5 5.6-2 11.4-3.4 17.1-5.1 2.9-.8 5.8-1.7 8.5-3.1 1.3-.7 2.7-1.5 3.8-2.6 1.1-1.1 2-2.4 2.6-3.9 1.2-2.9 1.5-5.9 1.6-8.9 0-3-.1-6-.2-9l-1.3-34.8 23.5.4c7.7.1 15.4.1 23.1.1-.4 7.9-.8 15.9-1.1 23.8-.2 4.2-.2 8.4-.3 12.6 0 4.2-.2 8.5.8 12.8.5 2.1 1.3 4.2 2.8 6 1.4 1.7 3.4 2.9 5.3 3.8 3.9 1.9 8 2.8 12.1 3.8s8.2 2 12.2 3.3c4 1.3 7.9 2.8 11.5 5 3.2 1.9 5.8 4.7 7.5 8 .9 1.6 1.5 3.4 1.9 5.2.2.9.4 1.8.4 2.7.1.5.1.9.1 1.4V200l-.3 19c-12.6-.2-25.1-.5-37.7-.7-12.7-.1-25.5-.1-38.2-.2z" fill="#9d521b" stroke-width="none" opacity="1" stroke="none"></path></g><g id="svga-group-clothes-single"><path id="SvgjsPath72225" d="M129.8 165.2c-1.6-4-5.9-16.6-5.9-16.6-1.3 3.6-4.1 12-9 16-4.3 3.6-13 11.4-14.8 13-1.8-1.6-10.5-9.4-14.8-13-4.9-4-7.6-12.2-8.9-15.8 0 0-4.4 12.4-6 16.5 0 0 6.3 26.5 8.6 31.5 0 0 .1-.1.2-.4.3 2.6.7 5.1 1.3 7.3 2.9 10.7 8.6 17.9 8.6 17.9h21.7s10.3-13.7 11.6-23.8c.2-1.9.4-3.9.4-5.8 2.8-9.3 7-26.8 7-26.8z" fill="#ffffff" stroke-width="none" opacity="1"></path><path id="SvgjsPath72226" d="M96 196.2s-5.3-10.6-5.9-13.8c0 0 11.2-12.1 20.3 1.1l-5.2 12.7s3.3 17.4 3.3 23.9H92.1s1.3-16.5 3.9-23.9z" fill="#222222" stroke-width="none" opacity="1"></path><path id="SvgjsPath72227" d="M110.8 183.2c-2.7-3.9-5.9-6.1-9.5-6.4-6.3-.5-11.4 5-11.6 5.2-.1.1-.2.3-.1.4.5 3 5.1 12.2 5.8 13.7-2.6 7.5-3.8 23.2-3.9 23.8 0 .1 0 1.3.1 1.4s.2.2.4.2h16.4c.3 0 .5-1.2.5-1.5 0-6.3-2.9-22-3.3-23.9l5.2-12.5c.1 0 .1-.2 0-.4zm-6.1 12.8c0 .1-.1.2 0 .3 0 .2 3.1 16.5 3.3 23.3H92.6c.2-2.9 1.6-16.7 3.9-23.2.1-.1 0-.3 0-.4-.1-.1-5.1-10-5.8-13.4.9-.9 5.5-5.1 10.6-4.7 3.2.2 6.1 2.1 8.6 5.7l-5.2 12.4z" fill="#672208" stroke-width="none" opacity="1"></path><path id="SvgjsPath72228" d="M97.1 188.9c-.9 2.4 1.6 7 1.6 7 .5-4.1-.7-9.4-1.6-7zm6.4-1.6c-1.7.7-1.8 7.9-1.8 7.9 1.8-2.8 3.5-8.6 1.8-7.9zm-.8 14.9c0 1.1.2 5.5 1.4 4.1 1.2-1.4-1.2-7.8-1.2-7.8s-.2 2.6-.2 3.7zm-3.7 2.9c-.5 3.9 1.4 5.2 1.7 2.4.3-2.8-.3-9.2-.3-9.2s-.9 2.9-1.4 6.8zm-2.2-1.4c.7 1.4 1.4-3.3 1.2-5 0-.1-1.9 3.6-1.2 5z" fill="#000000" stroke-width="none" opacity="1"></path><path id="SvgjsPath72229" d="M71.3 157.1s-10.6 8-16.5 10.6l2.3 2.6s-22.3 5.2-26.9 6.7-6.7 3.6-6.7 3.6-1.7-1.3-4.2.2-3.6 39.4-3.6 39.4h72.6s-10.9-23.9-17.6-58.4c.1-.1.6-2.6.6-4.7zm112.9 63s-1.1-37.9-3.6-39.4-4.2-.2-4.2-.2-2.1-2.1-6.7-3.6-26.9-6.7-26.9-6.7l2.3-2.6c-5.9-2.5-16.5-10.6-16.5-10.6 0 2.1.6 4.6.6 4.6-6.7 34.5-17.6 58.4-17.6 58.4l72.6.1z" fill="#864025" stroke-width="none" opacity="1"></path><path id="SvgjsPath72230" d="M184.1 198c-.3-3.7-.6-7.4-1.1-11-.3-1.9-.5-3.7-1.1-5.6-.1-.2-.2-.5-.4-.8-.1-.1-.2-.3-.4-.4l-.4-.2c-.4-.2-.9-.4-1.5-.5-.9-.2-1.8-.1-2.7.3-2.4-1.9-5.1-2.9-7.8-3.6-2.9-.8-5.8-1.4-8.6-2.1l-16.7-4 2-2.1.1-.1c.1-.2 0-.4-.2-.5-1.5-.6-2.9-1.5-4.2-2.3-1.4-.9-2.7-1.8-4.1-2.7-2.7-1.9-5.3-3.8-7.9-5.8-.1-.1-.3-.2-.4-.2l-1.2.3s-3-7.8-3.7-8.7c-.6 1.3-1.4 4.2-4 9.4-1.1 1.9-3 4.5-5.5 6.5-2.7 2.1-5.2 4.3-7.7 6.5-2.2 1.9-4.3 3.9-6.4 5.8-2.1-1.9-4.2-3.9-6.4-5.8-2.5-2.2-5.1-4.4-7.7-6.4-7.4-6.9-7.1-10-9.2-15-.3-.5-.5-.5-.5-.5l-3.8 7.9c-.2-.1-1.4 0-1.6.1-2.6 2-5.2 3.9-7.8 5.8-1.3.9-2.7 1.8-4.1 2.7-1.4.9-2.8 1.7-4.2 2.3 0 0-.1 0-.1.1-.2.1-.2.4 0 .5l2 2.1-16.7 4c-2.9.7-5.7 1.4-8.6 2.1-2.8.7-5.5 1.8-7.8 3.6-.9-.4-1.8-.5-2.7-.3-.5.1-1 .3-1.5.5-.1.1-.2.1-.4.2l-.4.4c-.2.3-.3.5-.4.8-.6 1.9-.9 3.7-1.1 5.6-.5 3.7-.8 7.4-1.1 11-.5 7.4-.9 14.7-1.2 22.1 0 .6.5 1.1 1.1 1.1 12.2 0 24.9.5 37.1.3l36.2.1c-.1-.4-.8-2.1-.9-2.4l-.3-.9-.7-1.8c-.4-1.2-.9-2.4-1.3-3.6-.8-2.4-1.7-4.8-2.5-7.2-1.2-3.5-2.2-7-3.3-10.5.9-1.6 1.9-3.2 3-4.7.8-1 1.6-1.9 2.4-2.8.4-.4.9-.8 1.4-1.2l1.5-1.2c1-.8 1.9-1.7 2.8-2.7.4-.5.9-1 1.2-1.5.2-.2.4-.5.6-.6.1-.1.3-.3.6-.4.9-.5 2.1-.9 3.3-1.2.6-.1 5.7-.1 6.3 0 1.2.3 2.3.6 3.3 1.2.2.1.4.3.6.4l.6.6 1.2 1.5c.9 1 1.8 1.8 2.8 2.7l1.5 1.2c.5.4.9.8 1.4 1.2.9.8 1.7 1.8 2.4 2.8 1.1 1.5 2.1 3.1 3 4.7-1.1 3.5-2.1 7-3.3 10.5-.8 2.4-1.6 4.8-2.5 7.2-.4 1.2-.9 2.4-1.3 3.6l-.7 1.8-.3.9c-.1.3-1 1.9-1.1 2.4l36.7-.7c12.2.2 24.5.4 36.7.3.6 0 1-.5 1-1.1-.4-7.3-.8-14.6-1.3-22zM16.9 219c.2-7 .4-14 .8-20.9.2-3.7.5-7.3.9-10.9.2-1.8.4-3.7.9-5.3.1-.2.1-.4.2-.5 0-.1.1-.1 0-.1 0 0 .1-.1.2-.1.4-.2.7-.4 1.1-.4.7-.2 1.6-.1 2.1.2.2.1.5.1.6 0 1.8 2.7 3.1 5.6 4 8.6.5 1.6.8 3.2 1 4.9.2 1.7.5 3.3.6 5l1.1 10.1c.4 3.1.8 6.3 1.3 9.4H16.9zm34.8.4-19.6-.3c.2-3.2.2-6.4.1-9.6-.1-3.4-.3-6.8-.7-10.3-.2-1.7-.4-3.4-.8-5.1-.3-1.7-.8-3.4-1.4-5.1-1.2-3.1-3-5.9-5.4-8.1 1-.9 2.2-1.7 3.5-2.3 1.3-.6 2.6-1.1 4.1-1.6 2.8-.8 5.7-1.6 8.5-2.3 5.7-1.4 11.5-2.9 17.2-4.1.6.6 1.2 1.1 2 1.6-.2.2-.5.3-.7.5-1.2.8-2.5 1.6-3.7 2.3-.3.2-.5.6-.4 1 1.5 3.8 3.1 7.6 4.7 11.4 1.6 3.8 3.3 7.5 5 11.2 1.8 3.7 3.6 7.4 5.5 11 1 1.8 1.9 3.6 3 5.4 1 1.7 2 3.3 3.1 4.9l-24-.5zm33.5-6.2c.5 1.2 1 2.4 1.5 3.5.3.6.5 1.2.8 1.7l.4.9c.2.3.2.6.4.8l-12.4-.2c-1.8-3.6-3.4-7.2-5-10.8L66 197.7l-5-11.2-4.8-10.6c2.3-1.5 4.5-3.2 6.6-4.9 1.1-.9 2.3-1.9 3.4-2.9s2.2-1.9 3.3-3c-2.4 1.7-4.8 3.4-7.3 5-.9.6-1.7 1.2-2.6 1.8-.5-.8-1.1-1.5-1.7-2.2-.7-.6-1.3-1.2-2.2-1.7l-.3-.3c1.4-.6 2.7-1.3 4-2 1.4-.8 2.8-1.7 4.2-2.5 2.3-1.5 4.6-3 6.8-4.6-.1 1-.3 1.9-.5 2.9v.3c.9 5 2 10 3.3 15 1.2 5 2.6 9.9 4.1 14.7s3.2 9.7 5 14.5c.9 2.5 1.9 4.8 2.9 7.2zm11.2-36.1c-1.3.4-2.5.8-3.8 1.5-.3.2-.6.4-.9.7-.2.3-.4.5-.6.8-.4.5-.8 1-1.1 1.5-.8.9-1.6 1.8-2.5 2.6-.4.4-.9.9-1.4 1.3-.5.4-1 .9-1.4 1.4-.9 1-1.6 2-2.4 3.1-.9 1.4-1.8 2.9-2.5 4.3-.3-1-.6-2.1-.9-3.1-1.4-4.9-2.7-9.8-3.9-14.7-1.2-4.7-2.2-9.4-3.2-14.1.1-.3.1-.6.2-1 .2-1.4 1.8-4.9 2.8-7.6l1.5-4.7c0 .1.6 2.1 1.5 5.2 1.4 3.6 4.6 8.6 7.2 10.9 2.5 2.2 4.7 4.6 7.2 6.9l5.5 4.9c-.5-.1-.9 0-1.3.1zm21.3 12.8c-.7-1.1-1.5-2.1-2.4-3.1-.4-.5-.9-.9-1.4-1.4-.5-.4-.9-.8-1.4-1.3-.9-.9-1.8-1.7-2.5-2.6-.4-.5-.7-.9-1.1-1.5-.2-.3-.4-.5-.6-.8-.3-.3-.6-.5-.9-.7-1.2-.7-2.5-1.1-3.8-1.5-.4-.1-.8-.2-1.3-.3l5.5-4.9c2.5-2.2 4.6-4.4 7.1-6.6 5-4.9 6.6-9.1 7.5-11.9 1.1-3.5 1.3-4.1 1.3-4.2 0 0 1.1 3.2 2.1 6.1.7 2 2.3 6.7 2.3 7-1 4.7-2 9.4-3.2 14.1-1.2 4.9-2.5 9.8-3.9 14.7-.3 1.1-.6 2.1-.9 3.1-.7-1.3-1.5-2.8-2.4-4.2zm-6 30.2c.2-.1.3-.5.4-.8l.4-.9c.3-.6.5-1.2.8-1.7.5-1.2 1-2.3 1.5-3.5 1-2.4 2-4.7 2.8-7.1 1.8-4.8 3.5-9.6 5-14.5s2.9-9.8 4.1-14.7c1.3-4.9 2.3-9.9 3.3-15v-.3c-.2-.9-.4-1.9-.5-2.9 2.2 1.6 4.5 3.1 6.8 4.6 1.4.9 2.8 1.7 4.2 2.5 1.3.7 2.6 1.4 3.9 2l-.3.3c-.8.5-1.5 1.1-2.1 1.7-.6.6-1.2 1.4-1.7 2.2-.9-.6-1.8-1.1-2.6-1.8-2.4-1.6-4.8-3.4-7.3-5l3.3 3c1.1 1 2.2 1.9 3.4 2.9 2.1 1.7 4.2 3.4 6.6 4.9l-4.8 10.6-5 11.2L129 209c-1.6 3.6-3.2 7.3-5 10.8l-12.3.3zm36.6-.7-24.2.5c1.1-1.6 2.2-3.2 3.1-4.9 1.1-1.8 2-3.6 3-5.4 1.9-3.6 3.7-7.3 5.5-11 1.7-3.7 3.4-7.4 5.1-11.2 1.6-3.8 3.2-7.5 4.7-11.4.1-.4 0-.8-.4-1-1.2-.7-2.5-1.5-3.7-2.3-.2-.2-.5-.3-.7-.5.8-.4 1.4-1 2-1.6 5.8 1.3 11.5 2.7 17.2 4.1 2.9.7 5.7 1.5 8.5 2.3 1.4.4 2.8.9 4.1 1.6 1.3.6 2.5 1.4 3.5 2.3-2.4 2.2-4.1 5.1-5.4 8.1-.7 1.6-1.1 3.4-1.4 5.1-.3 1.7-.6 3.4-.8 5.1-.4 3.4-.6 6.8-.7 10.3-.1 3.2-.1 6.4.1 9.6-6.4 0-12.9.1-19.5.3zm19.7-.3c.5-3.1.9-6.3 1.3-9.4l1.1-10.1c.2-1.7.4-3.4.6-5 .2-1.7.6-3.3 1.1-4.9.9-3 2.2-5.9 4-8.6.2.1.4.1.6 0 .5-.3 1.4-.4 2.1-.2.4.1.8.2 1.1.4.1 0 .2.1.2.1v.1c.1.1.1.3.2.5.5 1.6.7 3.5.9 5.3.4 3.6.6 7.3.9 10.9.4 7 .7 13.9.8 20.9-4.8-.1-9.8-.1-14.9 0z" fill="#672208" stroke-width="none" opacity="1"></path></g><g id="svga-group-head" transform="matrix(1,0,0,1,0,0)"><g id="svga-group-ears-left-move" transform="matrix(1,0,0,1,0,0)"><g id="svga-group-ears-left" transform="matrix(1,0,0,1,0,0)"><path id="SvgjsPath71921" d="M62.2 95.2s-4.4-4.7-5.8-6.2-3.1-4.7-5-4.1c-1.9.5-1.2 2.7-1.3 5.8-.1 3.1.3 9.1 2.2 12.4s2.9 4.5 3.5 8 2.8 4.2 4.1 3.2 4.3-7 4.4-10.2c0-3.2-1.3-7.6-2.1-8.9z" fill="#cb8d60" stroke-width="none" opacity="1" stroke="none"></path><path id="SvgjsPath71922" d="M63.1 97.3c.3.8.5 1.5.7 2.3.4 1.6.7 3.2.7 4.9 0 .8-.2 1.6-.3 2.3l-.6 2.1c-.5 1.3-1.1 2.6-1.7 3.8-.3.6-.7 1.1-1.1 1.7-.2.2-.5.5-.8.7s-.6.3-.9.3c-.7.1-1.4-.1-2-.7s-1.1-1.4-1.4-2.3l-.2-.7-.1-.7c-.1-.4-.1-.8-.2-1.1-.2-.7-.4-1.5-.6-2.1-.5-1.4-1.3-2.7-2.1-4-.4-.6-.8-1.4-1-2.2-.3-.8-.5-1.6-.7-2.4-.3-1.6-.6-3.2-.7-4.8-.2-1.6-.2-3.2-.2-4.7 0-.8-.1-1.5-.1-2.4 0-.4 0-.8.1-1.3.1-.4.2-.9.5-1.2.2-.3.5-.5.8-.6s.6-.2 1-.2c.7.1 1.3.5 1.9 1 1.1 1 1.9 2.4 2.7 3.5 1.9 2.2 3.7 4.4 5.6 6.5.1.8.4 1.6.7 2.3zm-7-7.9c-1.1-1-1.9-2.3-2.8-3.1-.5-.4-.9-.7-1.4-.8-.4 0-.9.1-1.2.4s-.4.9-.4 1.7v2.3c0 .8-.1 1.5-.1 2.3s0 1.5.1 2.3c.1 1.6.3 3.1.7 4.7.4 1.5 1 3 1.8 4.2.8 1.3 1.7 2.5 2.4 4 .3.8.6 1.6.8 2.4l.3 1.2.1.5.2.5c.2.6.6 1.1 1 1.4s.9.4 1.3.3c.2 0 .4-.1.6-.2.2-.1.3-.3.5-.5.3-.4.7-1 1-1.5.6-1.1 1.2-2.3 1.7-3.5s1-2.5 1.2-3.8c.2-1.4 0-3-.2-4.5-.1-.8-.3-1.6-.5-2.3-.2-.8-.5-1.5-.9-2.1-2.2-2.1-4.2-4-6.2-5.9z" fill="#bc7746" stroke-width="none" opacity="1" stroke="none"></path><path id="SvgjsPath71923" d="M50.4 89.6c.5-1.9 2.1-1 3 .4 1.9 2.6 3.2 6.6 3.6 10 0 .1-.1.2-.1.1-.1.1-.2.1-.2-.1-1.2-.5-1.6-.2-1.2.8 0 .3.1.6.3.9.2.5.6 1 .9 1.5.5.8 1.2 1.5 1.7 2.3.2.3 0 .6-.2.4-1.4-1-3.9-4.3-3.2-6.6.3-.8 1-1.1 1.5-.7-1.1-3.6-4-12-5.8-8.8-.2.1-.3-.1-.3-.2z" fill="#ac642f" stroke-width="none" opacity="1" stroke="none"></path><path id="SvgjsPath71924" d="M53.3 90.1c-1 2-1.4 4.4-.9 7.1.3 1.5 2.9 9.5 4.9 8.4.2-.1.4.3.2.5-2 1.8-4.2-4.5-4.9-6.5-1.1-3.4-1.4-7.5.5-9.7.1-.1.2 0 .2.2z" fill="#ac642f" stroke-width="none" opacity="1" stroke="none"></path></g></g><g id="svga-group-ears-right-move" transform="matrix(1,0,0,1,0,0)"><g id="svga-group-ears-right" transform="matrix(1,0,0,1,0,0)"><path id="SvgjsPath71925" d="M138.08 95.16s4.4-4.7 5.8-6.2 3.1-4.7 5-4.1c1.9.5 1.2 2.7 1.3 5.8.1 3.1-.3 9.1-2.2 12.4s-2.9 4.5-3.5 8-2.8 4.2-4.1 3.2-4.3-7-4.4-10.2c0-3.2 1.3-7.6 2.1-8.9z" fill="#cb8d60" stroke-width="none" opacity="1" stroke="none"></path><path id="SvgjsPath71926" d="M137.9 95.1c1.9-2 3.8-4.3 5.6-6.5.9-1 1.6-2.4 2.7-3.5.5-.5 1.2-1 1.9-1 .3 0 .7 0 1 .2.3.1.6.3.8.6.2.3.4.8.5 1.2.1.4.1.9.1 1.3 0 .8-.1 1.6-.1 2.4 0 1.5-.1 3.2-.2 4.7-.1 1.6-.4 3.2-.7 4.8-.2.8-.4 1.6-.7 2.4s-.6 1.5-1 2.2c-.7 1.3-1.5 2.7-2.1 4-.3.7-.5 1.4-.6 2.1-.1.4-.1.7-.2 1.1l-.1.7-.2.7c-.3.9-.8 1.7-1.4 2.3-.6.5-1.4.8-2 .7-.3 0-.6-.1-.9-.3-.3-.2-.6-.5-.8-.7-.4-.5-.8-1.1-1.1-1.7-.6-1.2-1.2-2.4-1.7-3.8-.2-.7-.5-1.4-.6-2.1-.2-.7-.3-1.5-.3-2.3 0-1.7.3-3.3.7-4.9.2-.8.4-1.6.7-2.3 0-.8.3-1.6.7-2.3zm.1.1c-.4.6-.6 1.4-.9 2.1-.2.8-.4 1.5-.5 2.3-.3 1.5-.4 3.1-.2 4.5s.7 2.6 1.2 3.8c.5 1.2 1.1 2.4 1.7 3.5.3.5.6 1.1 1 1.5.2.2.3.4.5.5s.4.2.6.2c.4.1.9 0 1.3-.3s.7-.8 1-1.4l.2-.5.1-.5.3-1.2c.2-.8.5-1.6.8-2.4.7-1.5 1.6-2.8 2.4-4 .8-1.2 1.4-2.6 1.8-4.2.4-1.5.6-3.1.7-4.7.1-.8.1-1.6.1-2.3 0-.8-.1-1.5-.1-2.3v-2.3c0-.7-.1-1.4-.4-1.7-.3-.3-.8-.5-1.2-.4-.4 0-.9.4-1.4.8-.9.8-1.8 2.1-2.8 3.1-2.3 2-4.3 3.9-6.2 5.9z" fill="#bc7746" stroke-width="none" opacity="1" stroke="none"></path><path id="SvgjsPath71927" d="M149.6 89.6c-.5-1.9-2.1-1-3 .4-1.9 2.6-3.2 6.6-3.6 10 0 .1.1.2.1.1.1.1.2.1.2-.1 1.2-.5 1.6-.2 1.2.8 0 .3-.1.6-.3.9-.2.5-.6 1-.9 1.5-.5.8-1.2 1.5-1.7 2.3-.2.3 0 .6.2.4 1.4-1 3.9-4.3 3.2-6.6-.3-.8-1-1.1-1.5-.7 1.1-3.6 4-12 5.8-8.8.2.1.3-.1.3-.2z" fill="#ac642f" stroke-width="none" opacity="1" stroke="none"></path><path id="SvgjsPath71928" d="M146.7 90.1c1 2 1.4 4.4.9 7.1-.3 1.5-2.9 9.5-4.9 8.4-.2-.1-.4.3-.2.5 2 1.8 4.2-4.5 4.9-6.5 1.1-3.4 1.4-7.5-.5-9.7-.1-.1-.2 0-.2.2z" fill="#ac642f" stroke-width="none" opacity="1" stroke="none"></path></g></g><g id="svga-group-faceshape-wrap" transform="matrix(1,0,0,1,0,0)"><g id="svga-group-faceshape-single"><path id="SvgjsPath72003" d="M142.7 105.7c-.5-4.6-.6-5.7-.1-12.3.4-4.9.6-10.1.6-11.5v-.3c-1.3-29.9-20.7-46.4-43.2-46.4S58.1 51.8 56.9 81.7v.3c0 1.4.2 6.6.6 11.5.5 6.5.4 7.6-.1 12.3-.5 5.2-2.3 15.5-1.6 19.9.9 5.6 2.9 9.5 14.3 16 14.7 8.4 18.4 16 30 16 11.5 0 15.3-7.6 30-16 11.3-6.5 13.4-10.4 14.3-16 .6-4.5-1.2-14.8-1.7-20z" fill="#cb8d60" stroke-width="none" opacity="1" stroke="none"></path><path id="SvgjsPath72004" d="M142.6 93.4c.4-4.9.6-11.8.6-11.8-1.3-29.9-20.7-46.4-43.2-46.4S58.1 51.8 56.9 81.7v.3c0 1.4.2 6.6.6 11.5.5 6.5.4 7.6-.1 12.3-.5 5.2-2.3 15.5-1.6 19.9.9 5.6 2.9 9.5 14.3 16 14.7 8.4 18.4 16 30 16 11.5 0 15.3-7.6 30-16 11.3-6.5 13.4-10.4 14.3-16 .6-4.5-1.2-14.8-1.7-20-.5-4.6-.6-5.7-.1-12.3zm1 26.7c.2 1.8.3 2.6.2 4.4 0 .9-.2 1.7-.5 2.5-.2.8-.6 1.6-1 2.4-.8 1.5-2 2.8-3.3 3.9-2.6 2.3-4.8 4.1-7.9 5.8l-4.9 2.6c-1.6.9-3.2 1.9-4.8 2.8-1.6 1-3.1 2-4.7 3-1.5 1-3 2-4.5 2.9-3 1.8-6 3.1-9.2 3.4-1.6.2-3.3.2-5 .1-1.6-.2-3.2-.5-4.7-1-1.5-.6-3-1.3-4.5-2.1-1.5-.9-2.9-1.9-4.4-2.9-3-2.1-6-4.3-9.3-6.2-.8-.5-1.6-1-2.4-1.4l-2.4-1.4c-1.6-.9-3.1-1.8-4.6-2.8-2.9-1.9-4.7-4.1-6.3-6.6-.8-1.3-1.3-2.7-1.5-4.3 0 0-.1-.9-.1-1.1v-1.2c0-.8.1-1.7.2-2.6.3-3.5.8-11.4 1-13.3s.3-2.7.3-4.6c.1-3.8-.5-7.5-.7-11.2l-.4-5.4-.1-2.8c0-.4-.1-.9-.1-1.3l.1-1.3c.1-3.6.5-7.2 1.3-10.7 1.6-7 4.6-13.8 9.3-19.3 1.2-1.3 2.4-2.7 3.8-3.8l1-.9c.3-.3.7-.6 1-.8l2.2-1.5c3-1.9 6.2-3.5 9.7-4.4 1.7-.6 3.4-.9 5.2-1.2.9-.2 1.8-.2 2.6-.3.9-.1 1.7-.2 2.6-.2h2.6c.9 0 1.8.1 2.6.2 1.8.1 3.5.5 5.2.7 3.4.7 6.8 1.7 9.9 3.3 1.6.7 3 1.7 4.5 2.5l2.1 1.5 1.1.8c.4.3.7.6 1 .8l1.9 1.7c.6.6 1.2 1.3 1.8 1.9 1.3 1.2 2.2 2.7 3.3 4 .5.7.9 1.5 1.4 2.2.4.8 1 1.5 1.4 2.3l1.2 2.4c.2.4 1.1 2.4 1.1 2.4l1 2.5c.3.8 2.2 7.7 2.2 7.7.2.9 1 3.4 1.1 8.1V85c0 1.8-.1 3.7-.1 5.5s-.1 3.7-.2 5.5c-.1 1.8-.2 3.7-.1 5.5.1 1.8.6 8.5 1.8 18.6z" fill="#9d521b" stroke-width="none" opacity="1" stroke="none"></path></g></g><g id="svga-group-mouth-single-move" transform="matrix(1,0,0,1,0,0)"><g id="svga-group-mouth-single" transform="matrix(1,0,0,1,0,0)"><path id="SvgjsPath72082" d="M88.66 128s7.08-5.38 8.29-5.46c.63-.04 3.28 1.37 3.28 1.37s2.49-1.23 3.23-1.22c1.42.01 7.89 6.14 9.05 7 0 0-3.46.51-4.53-.17-1.07-.68-4.87-1.07-5.93-1.54-1.07-.47-5.42-.17-7.68.21s-4.91.31-5.71-.19z" fill="#e66638" stroke-width="none" opacity="1" transform="translate(0 2)" stroke="none"></path><path id="SvgjsPath72083" d="M86.86 128.38c4.18 1.86 8.94-.24 13.29-.15 2.61.06 4.99 1.13 7.49 1.74 1.78.43 3.98.89 5.61-.15.19-.12.92-.59.71-.61-1.49.43-3.21.16-4.42-.07-1.07-.21-2.1-.56-3.13-.89-1.94-.61-3.89-1.26-5.94-1.33-4.62-.15-9.75 1.75-14.43.67-.25-.06.55.68.82.79z" fill="#d74f1f" stroke-width="none" opacity="1" transform="translate(0 2)" stroke="none"></path><path id="SvgjsPath72084" d="M91.68 132.33c.95 1.46 1.77 2.58 3.56 3.34 1.62.7 3.69.21 5.41.23 1.57.01 3.27.46 4.78-.06 1.68-.58 2.16-1.75 3.22-2.92.42-.65 1.05-1.83.69-1.52-1.08.96-3.05 2.72-4.55 3.13-1.28.35-2.6.03-3.92 0-1.32-.04-2.65.23-3.96.11-2.53-.23-4.55-2.78-6.29-4.13-.16-.14.41.85.53 1.03l.53.79z" fill="#ac642f" stroke-width="none" opacity="1" transform="translate(0 2)" stroke="none"></path></g></g><g id="svga-group-eyes-left-move" transform="matrix(1,0,0,1,0,0)"><g id="svga-group-eyes-left" transform="matrix(1,0,0,1,0,0)"><g id="svga-group-eyesback-left"><path id="SvgjsPath71959" d="M90.4 96.5S89 94 86.9 92.3c-2.1-1.7-5.6-2.5-8.1-2.3-2.5.2-7.1 1.8-9.6 5.5 0 0 2.3 1.2 5.6 1.8 3.3.6 8.9 1.1 12 .4 3-.6 3.6-1.2 3.6-1.2z" fill="#ffffff" stroke-width="none" opacity="1"></path></g><g id="svga-group-eyesiriswrapper-left" transform="matrix(1,0,0,1,0,0)"><g id="svga-group-eyesiriscontrol-left" transform="matrix(1,0,0,1,0,0)"><g id="svga-group-eyesiris-left" transform="matrix(1,0,0,1,0,0)"><path id="SvgjsPath72017" d="M80.1 88.1c3 0 5.5 2.4 5.5 5.5S83.1 99 80.1 99s-5.5-2.4-5.5-5.5 2.4-5.4 5.5-5.4z" fill="#9fae70" stroke-width="none" opacity="1"></path><path id="SvgjsPath72018" d="M80.1 99.3c-3.2 0-5.7-2.6-5.7-5.7 0-3.2 2.6-5.7 5.7-5.7 3.2 0 5.7 2.6 5.7 5.7s-2.6 5.7-5.7 5.7zm0-11c-2.9 0-5.2 2.3-5.2 5.2s2.3 5.2 5.2 5.2 5.2-2.3 5.2-5.2c-.1-2.8-2.4-5.2-5.2-5.2z" fill="#7c8f40" stroke-width="none" opacity="1"></path><path id="SvgjsPath72019" d="M80.1 90.6c1.6 0 2.9 1.3 2.9 2.9s-1.3 2.9-2.9 2.9-2.9-1.3-2.9-2.9 1.2-2.9 2.9-2.9z" fill="#000000" stroke-width="none" opacity="1"></path><path id="SvgjsPath72020" d="M78.7 90.5c.6 0 1 .5 1 1s-.5 1-1 1-1-.5-1-1 .5-1 1-1zm3.4 4.7c.2 0 .4.2.4.4s-.2.4-.4.4-.4-.2-.4-.4.2-.4.4-.4z" fill="#ffffff" stroke-width="none" opacity="1"></path></g></g></g><g id="svga-group-eyesfront-left"><path id="SvgjsPath71967" d="M74.8 97.4c3.3.6 8.9 1.1 12 .4s3.6-1.3 3.6-1.3-1.4-2.5-3.5-4.2-5.6-2.5-8.1-2.3c-2.5.2-6.8 1.7-9.3 5.2v-.7c0-6.4 4.7-11.5 10.6-11.5s10.6 5.2 10.6 11.5S86 106 80.1 106c-5.5 0-10.1-4.6-10.6-10.5.6.5 2.6 1.4 5.3 1.9z" fill="#cb8d60" stroke-width="none" opacity="1" stroke="none"></path><path id="SvgjsPath71968" d="M90.9 98c-3.6 2.6-8.4 4.1-12.9 3.7-.2 0-.2-.2 0-.2 4.7-.5 8.5-1.4 12.7-3.7.3-.2.4.1.2.2z" fill="#bc7746" stroke-width="none" opacity="1" stroke="none"></path><path id="SvgjsPath71969" d="M69.2 95.7c5.5 4.1 15.4 3.7 21.5 1.5.3-.1.5-.5.3-.8-4.8-9.2-16.2-9.3-22-1-.1.1.1.3.2.3zm10.9 1.9c-3.7-.2-7-1.3-10.5-2.2 5.7-6.8 15.6-6.8 20.2.9-3.2 1.1-6.4 1.5-9.7 1.3z" fill="#587d90" stroke-width="none" opacity="1" stroke="none"></path></g></g></g><g id="svga-group-eyes-right-move" transform="matrix(1,0,0,1,0,0)"><g id="svga-group-eyes-right" transform="matrix(1,0,0,1,0,0)"><g id="svga-group-eyesback-right"><path id="SvgjsPath71960" d="M109.6 96.5s1.4-2.5 3.5-4.2c2.1-1.7 5.6-2.5 8.1-2.3 2.5.2 7.1 1.8 9.6 5.5 0 0-2.3 1.2-5.6 1.8-3.3.6-8.9 1.1-12 .4-3-.6-3.6-1.2-3.6-1.2z" fill="#ffffff" stroke-width="none" opacity="1"></path></g><g id="svga-group-eyesiriswrapper-right" transform="matrix(1,0,0,1,0,0)"><g id="svga-group-eyesiriscontrol-right" transform="matrix(1,0,0,1,0,0)"><g id="svga-group-eyesiris-right" transform="matrix(1,0,0,1,0,0)"><path id="SvgjsPath72021" d="M119.9 88.1c3 0 5.5 2.4 5.5 5.5S123 99 119.9 99s-5.5-2.4-5.5-5.5 2.5-5.4 5.5-5.4z" fill="#9fae70" stroke-width="none" opacity="1"></path><path id="SvgjsPath72022" d="M119.9 99.3c-3.2 0-5.7-2.6-5.7-5.7 0-3.2 2.6-5.7 5.7-5.7 3.2 0 5.7 2.6 5.7 5.7s-2.5 5.7-5.7 5.7zm0-11c-2.9 0-5.2 2.3-5.2 5.2s2.3 5.2 5.2 5.2 5.2-2.3 5.2-5.2c0-2.8-2.3-5.2-5.2-5.2z" fill="#7c8f40" stroke-width="none" opacity="1"></path><path id="SvgjsPath72023" d="M119.9 90.6c1.6 0 2.9 1.3 2.9 2.9s-1.3 2.9-2.9 2.9-2.9-1.3-2.9-2.9 1.3-2.9 2.9-2.9z" fill="#000000" stroke-width="none" opacity="1"></path><path id="SvgjsPath72024" d="M118.6 90.5c.6 0 1 .5 1 1s-.5 1-1 1-1-.5-1-1 .5-1 1-1zm3.4 4.7c.2 0 .4.2.4.4s-.2.4-.4.4-.4-.2-.4-.4.2-.4.4-.4z" fill="#ffffff" stroke-width="none" opacity="1"></path></g></g></g><g id="svga-group-eyesfront-right"><path id="SvgjsPath71970" d="M125.2 97.4c-3.3.6-8.9 1.1-12 .4s-3.6-1.3-3.6-1.3 1.4-2.5 3.5-4.2 5.6-2.5 8.1-2.3c2.5.2 6.8 1.7 9.3 5.2v-.7c0-6.4-4.7-11.5-10.6-11.5s-10.6 5.2-10.6 11.5S114 106 119.9 106c5.5 0 10.1-4.6 10.6-10.5-.6.5-2.6 1.4-5.3 1.9z" fill="#cb8d60" stroke-width="none" opacity="1" stroke="none"></path><path id="SvgjsPath71973" d="M109.1 98c3.6 2.6 8.4 4.1 12.9 3.7.2 0 .2-.2 0-.2-4.7-.5-8.5-1.4-12.7-3.7-.3-.2-.4.1-.2.2z" fill="#bc7746" stroke-width="none" opacity="1" stroke="none"></path><path id="SvgjsPath71974" d="M131 95.4c-5.8-8.3-17.3-8.2-22 1-.2.3 0 .7.3.8 6.1 2.2 16 2.6 21.5-1.5.1 0 .3-.2.2-.3zm-20.8.9c4.6-7.7 14.5-7.7 20.2-.9-3.5.9-6.8 2-10.5 2.2-3.3.2-6.5-.2-9.7-1.3z" fill="#587d90" stroke-width="none" opacity="1" stroke="none"></path></g></g></g><g id="svga-group-facehighlight-single"></g><g id="svga-group-eyebrows-left-move" transform="matrix(1,0,0,1,0,0)"><g id="svga-group-eyebrows-left-rotate" transform="matrix(1,0,0,1,0,0)"><g id="svga-group-eyebrows-left" transform="matrix(1,0,0,1,0,0)"><path id="SvgjsPath71887" d="M66.1 85c.5-1.2 1.7-2.2 2.6-3.1.8-.9 1.7-1.9 2.6-2.7.4-.9 1.2-1.5 1.9-2.2l.1-.1c.1-.2.2-.3.3-.5.3-.5.7-1 1.2-1.4h.2l.1-.1c.1 0 .1-.1.1-.1.1-.1.2-.2.3-.2.1-.1.2-.1.3 0h.1c.3 0 .4.2.5.4h.2c.5.2.9.3 1.4.4.3.1.4.3.4.5l1.5.6c.4.2.8.3 1.3.6.6.3 1.2.5 1.8.8.2.1.3.2.3.4.1 0 .1.1.2.1s.1.1.1.2c.1.1.2.1.4.2 1.3.4 2.5.9 3.7 1.6.2.1.2.2.3.3.1.1.2.1.3.2.3.1.5.2.8.3 1 .3 1.9.7 2.8 1.3.1.1.1.2.1.3.2.1.3.2.5.4.3.2.1.8-.3.7-.1 0-.2-.1-.3-.1-.2.6-.5 1.2-.9 1.7v.1c0 .2 0 .4-.1.6 0 .4-.4.8-.8.6l-3.6-2.4c-1.3-.8-2.6-1.6-3.8-2.6-1.4-.8-2.8-1.6-4.1-2.5-.8-.4-1.5-.9-2.2-1.4-.2.2-.5.3-.7.4-.6.5-1.1.9-1.7 1.4-.8.6-1.6 1.3-2.6 1.6-.3.4-.7.8-1.1 1.2-.5.5-1.1 1.1-1.8 1.5-.2.2-.4.3-.6.4-.5.5-.9.9-1.5 1.2-.2-.1-.5-.4-.3-.6z" fill="#caa478" stroke-width="none" opacity="1"></path><path id="SvgjsPath71888" d="M89.5 86.3c0-.1.1-.2.2-.3-.1-.1-.2-.2-.2-.3.2-.7.4-1.3.4-2 .1-.9-.2-1.6-.4-2.4-.1-.2.2-.4.4-.3 1.4.9.9 2.9.4 4.3.2-.2.3-.3.4-.5.4-.6.7-1.2 1-1.9.1-.3.6-.2.5.2-.1.7-.4 1.4-.8 2.1-.3.5-.9 1.4-1.5 1.6-.3 0-.5-.2-.4-.5zM76.2 74.7c2.3 1.6 4.2 3.9 6.3 5.7 1.1.9 2.3 1.8 3.5 2.6-.6-.9-1.2-1.7-1.9-2.4-1.2-1.3-2.6-2.3-3.8-3.5-.2-.2 0-.7.3-.5 3 1.4 5.1 4.4 6.6 7.3l1.2.9c-.3-.8-.7-1.7-1.1-2.5-.5-.9-1.2-1.7-1.7-2.6-.1-.2.1-.4.3-.3 1.9 1.1 3 3.8 3.2 6l.1.1c.1.1 0 .3-.1.3-.1.2-.3.2-.4 0 0-.1-.1-.2-.1-.2-2.4-1.2-4.6-2.9-6.7-4.5-2.1-1.7-4.8-3.6-6.2-5.9-.1-.4.2-.7.5-.5zm-4.1 3.2c.4-.5 1.2-.6 1.8-.6.7-.1 1.5-.1 2.1.2.2.1.2.4-.1.4-.7.1-1.3 0-2 0-.6.1-1.2.4-1.8.3 0 .1-.1-.1 0-.3zm-2.3 2.6c.7-.6 1.7-.9 2.5-1.2 1-.4 2.1-.8 3.2-1.2.2-.1.3.2.2.3-.9.5-1.9 1-2.9 1.4-.9.4-1.8.9-2.8 1.1-.3.1-.4-.3-.2-.4z" fill="#d9ba97" stroke-width="none" opacity="1"></path><path id="SvgjsPath71889" d="M76 78.3c2.1 1.6 4.5 2.9 6.7 4.3 2.4 1.5 4.7 3 7.2 4.4v.1c-.1.2.2.4.4.3.1.1.2.1.3.1.8-.3 1.5-1.3 2-2 .6-.8 1.1-1.6 1.4-2.5.1-.3-.3-.4-.5-.2-.3.4-.6.8-.8 1.2.2-.8.4-1.6.3-2.3 0-.1-.1-.2-.2-.2-.1-.2-.3-.3-.4-.1-.2.2-.3.4-.5.6-5.1-2.9-10.7-5.2-16-7.8h-.4c-2.2 1.9-4.1 4-6 6.1-1.9 2.1-4 4.2-5.4 6.6v.1c-.1.1-.2.3-.4.4-.1.2 0 .4.2.3 2.2-1 4.1-2.8 6-4.3C72 81.6 74 80 76 78.3zm-.2-.4c-2.2 1.4-4.3 3.1-6.4 4.7-.7.6-1.6 1.1-2.3 1.7.9-1.1 1.8-2.3 2.8-3.4 1.9-2.1 3.8-4.1 5.6-6.2 5.3 2.5 10.5 5.4 15.9 7.6-.2.3-.5.5-.6.9-.1.2.1.3.3.3.3-.1.5-.2.7-.4-.2.5-.3.9-.5 1.3-.3.8-.8 1.4-1.3 2.1-2.3-1.6-4.6-3.1-7-4.6-2.2-1.4-4.4-3.1-6.8-4.3-.1-.1-.3 0-.4.3z" fill="#bb8f5c" stroke-width="none" opacity="1"></path></g></g></g><g id="svga-group-eyebrows-right-move" transform="matrix(1,0,0,1,0,0)"><g id="svga-group-eyebrows-right-rotate" transform="matrix(1,0,0,1,0,0)"><g id="svga-group-eyebrows-right" transform="matrix(1,0,0,1,0,0)"><path id="SvgjsPath71890" d="M134 85c-.5-1.2-1.7-2.1-2.6-3.1-.9-.9-1.7-1.9-2.6-2.7-.4-.8-1.2-1.5-1.9-2.2l-.1-.1c-.1-.2-.2-.3-.3-.5-.3-.5-.7-1-1.2-1.4-.1-.1-.1-.1-.2-.1l-.1-.1c-.1 0-.1-.1-.1-.1-.1-.1-.2-.2-.3-.2-.1-.1-.2-.1-.3 0h-.1c-.3 0-.4.2-.5.4h-.2c-.5.2-.9.3-1.4.4-.3.1-.4.3-.4.5l-1.5.6c-.4.2-.8.3-1.3.6-.6.3-1.2.5-1.8.8-.2.1-.3.2-.3.4-.1 0-.1.1-.2.1-.1.1-.1.1-.1.2-.1.1-.2.1-.4.2-1.3.4-2.5.9-3.7 1.6-.2.1-.2.2-.3.3-.1.1-.2.1-.3.2-.3.1-.5.2-.8.3-1 .3-1.9.7-2.8 1.3-.1.1-.1.2-.1.3-.2.1-.3.2-.5.4-.3.2-.1.8.3.7.1 0 .2-.1.3-.1.2.6.5 1.2.9 1.7v.1c0 .2 0 .4.1.6 0 .4.4.8.8.6l3.6-2.4c1.3-.8 2.6-1.6 3.7-2.6 1.4-.8 2.8-1.6 4.1-2.5.8-.4 1.5-.9 2.2-1.4.2.2.5.3.7.4.6.5 1.1.9 1.7 1.4.8.6 1.6 1.3 2.5 1.6.3.4.6.8 1.1 1.2.5.5 1.1 1.1 1.8 1.5.2.2.4.3.6.4.5.5.9.9 1.5 1.2.3 0 .6-.3.5-.5z" fill="#caa478" stroke-width="none" opacity="1"></path><path id="SvgjsPath71891" d="M110.5 86.3c0-.1-.1-.2-.2-.3.1-.1.2-.2.2-.3-.2-.7-.4-1.3-.4-2-.1-.9.2-1.6.4-2.4.1-.2-.2-.4-.4-.3-1.3.9-.9 2.9-.4 4.3-.2-.2-.3-.3-.4-.5-.4-.6-.7-1.2-1-1.9-.1-.3-.6-.1-.5.2.1.7.4 1.4.8 2.1.3.5.9 1.4 1.5 1.6.3 0 .5-.2.4-.5zm13.3-11.6c-2.3 1.6-4.2 3.9-6.3 5.7-1.1.9-2.3 1.8-3.5 2.7.6-.9 1.2-1.7 1.9-2.4 1.2-1.3 2.6-2.3 3.8-3.5.2-.2 0-.7-.3-.5-3 1.4-5.1 4.4-6.6 7.3l-1.2.9c.3-.8.6-1.7 1.1-2.5.5-.9 1.2-1.7 1.7-2.6.1-.2-.1-.4-.3-.3-1.9 1.1-3 3.8-3.2 6l-.1.1c-.1.1 0 .3.1.3.1.2.3.2.4 0 0-.1.1-.2.1-.2 2.4-1.2 4.6-2.9 6.7-4.6 2.1-1.7 4.8-3.6 6.2-5.9.1-.4-.2-.7-.5-.5zm4.1 3.2c-.4-.5-1.2-.6-1.8-.6-.7-.1-1.5-.1-2.1.2-.2.1-.2.4.1.4.7.1 1.3 0 2 0 .6.1 1.2.4 1.8.3 0 0 .1-.1 0-.3zm2.3 2.6c-.7-.6-1.7-.9-2.5-1.2-1-.4-2.1-.8-3.2-1.2-.2-.1-.3.2-.2.3.9.5 1.9 1 2.9 1.4.9.4 1.8.9 2.8 1.1.3.1.4-.3.2-.4z" fill="#d9ba97" stroke-width="none" opacity="1"></path><path id="SvgjsPath71892" d="M130.1 83.2c1.9 1.5 3.8 3.3 6 4.3.2.1.4-.2.2-.3-.1-.1-.2-.3-.4-.4v-.1c-1.4-2.4-3.5-4.5-5.4-6.6-1.9-2.1-3.8-4.2-6-6.1-.1-.1-.2-.1-.2 0h-.2c-5.3 2.6-10.8 4.9-16 7.8-.1-.2-.3-.4-.5-.6-.2-.1-.3 0-.4.1-.1 0-.2.1-.2.2-.1.7.1 1.5.3 2.3-.3-.4-.6-.8-.8-1.2-.2-.2-.6-.1-.5.2.3.9.8 1.7 1.4 2.5.5.7 1.2 1.7 2 2 .1 0 .2 0 .3-.1.2.1.5-.1.4-.3v-.1c2.4-1.4 4.8-2.9 7.2-4.4 2.2-1.4 4.6-2.7 6.7-4.3 1.9 1.9 4 3.5 6.1 5.1zm-6.4-5.6c-2.4 1.2-4.6 2.8-6.8 4.3-2.3 1.5-4.7 3-7 4.6-.4-.7-.9-1.3-1.3-2.1-.2-.4-.4-.9-.5-1.3.2.2.4.4.7.4.2 0 .3-.1.3-.3-.1-.3-.4-.6-.6-.9 5.4-2.2 10.7-5.1 15.9-7.6 1.8 2.1 3.8 4.1 5.6 6.2 1 1.1 1.9 2.2 2.8 3.4-.8-.6-1.6-1.1-2.4-1.7-2.1-1.6-4.2-3.2-6.4-4.6.1-.4-.1-.6-.3-.4z" fill="#bb8f5c" stroke-width="none" opacity="1"></path></g></g></g><g id="svga-group-beardwrap" transform="matrix(1,0,0,1,0,0)"><g id="svga-group-beard-single-move" transform="matrix(1,0,0,1,0,0)"><g id="svga-group-beard-single" transform="matrix(1,0,0,1,0,0)"></g></g></g><g id="svga-group-mustache-single-move" transform="matrix(1,0,0,1,0,0)"><g id="svga-group-mustache-single" transform="matrix(1,0,0,1,0,0)"><path id="SvgjsPath72100" d="M101.9 123.6c.5.3 2.1.5 4 .4 1.9-.1 12.6-.3 13.6-.5s3.2 3.7 3.8 3.1.4-7.5-.4-7.8c-.8-.3-6.1-1.3-9.5-1.4s-11 .5-12.1 1h-1.6c-1.1-.5-8.7-1.1-12.1-1s-8.7 1.1-9.5 1.4c-.8.3-1 7.2-.4 7.8s2.8-3.3 3.8-3.1 11.7.4 13.6.5 3.5-.1 4-.4l1.4-.9 1.4.9z" fill="#caa478" stroke-width="none" opacity="1"></path><path id="SvgjsPath72101" d="M99.8 119.3c-2.1 2-4.3 3.1-7.1 3.7-.2 0-.1.3 0 .3 2.7-.2 5.6-1.6 7.4-3.7.2-.2-.1-.5-.3-.3zm-2.1.1c-3.5 1.6-6.8 2.6-10.6 3.2-.2 0-.1.3 0 .3 3.7-.1 7.5-1.3 10.7-3.2.2-.1 0-.4-.1-.3zm-4.9-.8c-3.6 1.3-7.2 2.8-10.7 4.4-.1.1 0 .3.1.2 3.6-1.2 7.3-2.7 10.6-4.4.1-.1.1-.3 0-.2zm-6.4-.4c-2.9.7-5.6 2.4-7.2 4.9-.1.1.1.2.2.1 1.9-2.2 4.2-4 7.1-4.9.1 0 0-.2-.1-.1zm-6.9.9c-1.1 1.9-1.7 4.1-1.6 6.2 0 .2.2.2.2 0 .2-2.2.7-4.1 1.6-6.1.1-.1-.1-.2-.2-.1zm21.7.6c-.1-.2-.3-.1-.3.1.3 1.8 1.7 3.6 3.6 3.8.1 0 .2-.2.1-.2-1.7-.8-3-1.8-3.4-3.7zm7.9 2.9c-2.3-.7-4.4-1.6-5.5-3.9-.1-.1-.3 0-.2.1.9 2.4 3.2 3.8 5.7 4 .1 0 .1-.2 0-.2zm5-.1c-2.5-.6-4.9-1.1-6.6-3.2-.1-.1-.3 0-.2.2 1.6 2.1 4.2 3.1 6.8 3.3.1 0 .2-.3 0-.3zm-1.3-3.8c-.1-.1-.3.1-.2.2 1.5 1.7 3.6 3.2 5.8 3.7.2 0 .3-.2.1-.3-2.1-1-3.9-1.9-5.7-3.6zm3 .4c-.1-.1-.3.1-.2.2 1 .9 2.1 1.8 3.4 2.2.1.1.2-.2.1-.2-1.1-.8-2.2-1.4-3.3-2.2zm3.6-.2c-.1-.1-.2.1-.1.2 2.1 1.4 3 3.5 3.3 5.9 0 .2.2.2.2 0 .3-2.5-1.3-4.8-3.4-6.1z" fill="#bb8f5c" stroke-width="none" opacity="1"></path></g></g><g id="svga-group-nose-single-move" transform="matrix(1,0,0,1,0,0)"><g id="svga-group-nose-single" transform="matrix(1,0,0,1,0,0)"><path id="SvgjsPath72065" d="M108.82 114.55c-.68.35-1.95-.3-2.8-.12-.85.18-3.92 2.8-4.86 3.1-.94.3-2.83-.49-4.22-1.49-1.4-1-3.04-1.73-3.98-1.61-.94.12-2.86.27-3.16-1.19-.3-1.46 1.03-3.77 1.73-4.68.7-.91 1.32-1.79 1.9-2.22.59-.42 5.18-1.67 8.7-.94 3.53.73 4.68 1.98 5.87 3.44 1.19 1.45 2.28 4.95.82 5.71z" fill="#cb8d60" stroke-width="none" opacity="1" transform="translate(0 1)" stroke="none"></path><path id="SvgjsPath72066" d="M93.36 106.28c-1.54 1.31-5.19 5.71-3.47 7.9.26.33.59.51.99.6 1.42.33 2.5-.24 3.96.48 1.73.86 3.1 2.49 5.1 2.76 1.63.23 2.75-.66 3.93-1.64.64-.53 1.36-1.25 2.21-1.42.64-.13 1.35.24 1.97.27.48.02.83.03 1.22-.28.9-.72.69-2.13.45-3.09-.47-1.93-1.5-3.67-3.03-4.92a.212.212 0 0 0-.3.3c1.04 1.29 1.99 2.66 2.47 4.27.36 1.23.81 2.6-1.15 2.71-.35.02-.81-.23-1.2-.22-.9.03-1.68.5-2.38 1.01-1.9 1.39-3.2 2.86-5.69 1.52-1.99-1.07-3.45-2.76-5.87-2.51-.4.07-.79.13-1.19.18-1.11-.53-1.49-1.27-1.14-2.24.17-.75.53-1.49.86-2.18.62-1.27 1.5-2.32 2.34-3.44.03-.04-.04-.09-.08-.06z" fill="#9d521b" stroke-width="none" opacity="1" transform="translate(0 1)" stroke="none"></path><path id="SvgjsPath72067" d="M93.93 108.29c-.24 3.02 2.33 5.74 5.42 5.4a.15.15 0 0 0 0-.3c-2.87-.33-4.95-2.2-5.31-5.1-.01-.07-.1-.08-.11 0z" fill="#9d521b" stroke-width="none" opacity="1" transform="translate(0 1)" stroke="none"></path><path id="SvgjsPath72068" d="M102.14 105.4c-1.12-.46-2.36-.67-3.57-.54-.92.1-2.35.65-2.03 1.85.4 1.55 2.5 1.37 3.72 1.73 1.33.39 1.81 1.66 2.97 2.26.42.22.96.19 1.3-.17 1.84-1.91-.61-4.39-2.39-5.13z" fill="#d3986e" stroke-width="none" opacity="1" transform="translate(0 1)" stroke="none"></path></g></g><g id="svga-group-hair-front" transform="matrix(1,0,0,1,0,0)"><path id="SvgjsPath72112" d="M137.8 58.2s3.6 2.5 3.7 7.5c0 0 1.7.8 1.6 6 0 0 1.4 2.5 1 6.3 0 0 .7 1.7.1 4-.2.7.7 3.6.2 4.5-3.4 5.5-5.6 4.5-5.6 4.5s-1.3-.7-.4-2.9c0 0-2.7.4-1.2-5.4 0 0-1.8-.3-1.2-3.5 0 0-1.7-1.8-.4-5.4 0 0-1.4-2-.1-4.3-.1 0 2-7.3 2.3-11.3zm-75.6 0s-3.6 2.5-3.7 7.5c0 0-1.7.8-1.6 6 0 0-1.4 2.5-1 6.3 0 0-.7 1.7-.1 4 .2.7-.7 3.6-.2 4.5C59 92 61.3 91 61.3 91s1.3-.7.4-2.9c0 0 2.7.4 1.2-5.4 0 0 1.8-.3 1.2-3.5 0 0 1.7-1.8.4-5.4 0 0 1.4-2 .1-4.3 0 0-2.1-7.3-2.4-11.3z" fill="#caa478" stroke-width="none" opacity="1" stroke="none"></path><path id="SvgjsPath72113" d="M136.2 70.3c.1-.9.1-1.9.2-2.8-.3.8-.6 1.6-1 2.2-.1.1-.2 0-.2-.1.4-2 1.1-3.8 1.4-5.8.3-2 .4-4 .7-6 0-.2.2-.2.3-.2h.1c2.6 1.1 4.2 5 4.3 8.4.1-.2.4-.3.5-.1.8 1.4 1 3.3.9 5.2.8 1.9 1.1 4.1.9 6.1 0 0 .1 0 .1.1.3 1.4.4 3.2.1 5 2.3 3.2-1.8 8.4-4.6 9.3-.3.1-.4-.3-.3-.5.9-1.2 2.3-1.9 3.2-3.1 1.1-1.4 1.3-2.8 1.3-4.3-.6 2.3-1.8 4.5-3.4 5.6-.1.1-.2-.1-.2-.2 1-1.9 2.2-3.3 2.9-5.4.5-1.6.6-3.3.7-5-.1.5-.2 1-.4 1.4-.1.2-.4.2-.4-.1.2-2.6.2-4.9-.1-7.4-.2.9-.5 1.8-.8 2.5-.1.3-.5.1-.4-.2.3-1.5.6-3.2.6-4.7 0-1.3-.4-2.6-.4-3.9 0 1.1-.1 2.1-.4 2.9-.1.2-.4.1-.4-.1-.1-2.1 0-4.1-.7-6.1-.6-1.8-1.7-2.9-2.6-4.3 0 2.6-.4 5.4-1.2 7.9.1 0 .3 0 .3.2.6 2.2-.1 5.1-1.2 6.9-.1.2-.5.1-.4-.2 0-1 .4-2.1.6-3.2zm1.9 3.2c.4-1.8.4-3.6.6-5.4 0-.2.4-.2.4 0 .4 2.2.1 4.8-.7 7.2.1 0 .2.1.2.2.2 2.5-.4 5.1-1.3 7.3-.1.2-.3.1-.3-.1.6-2.2.8-4.3 1-6.5-.5 1.2-1.1 2.3-1.8 3.2-.2.3-.6-.1-.4-.3 1-1.9 1.8-3.6 2.3-5.6zm3.1 7c.1-.3.5-.3.5.1-.2 2.8-1.5 5.4-3.1 7.6-.1.2-.5-.1-.4-.3 1.5-2.4 2.2-4.8 3-7.4zm-.6 5.6c.1-.2.4-.2.4.1-.1 1.8-.8 3.8-2.1 5-.2.2-.5 0-.4-.3.7-1.6 1.4-3.1 2.1-4.8zM63.8 70.3c-.2-.9-.2-1.9-.2-2.8.3.8.6 1.6 1 2.2.1.1.2 0 .2-.1-.4-2-1.1-3.8-1.4-5.8-.3-2-.4-4-.7-6 0-.2-.2-.2-.3-.2-2.5 1.1-4.2 5-4.3 8.4 0-.2-.4-.3-.5-.1-.8 1.4-1 3.3-.9 5.2-.8 1.9-1.1 4.1-.9 6.1 0 0-.1 0-.1.1-.3 1.4-.3 3.2 0 5-2.3 3.2 1.8 8.4 4.6 9.3.3.1.4-.3.3-.5-.8-1.2-2.3-1.9-3.2-3.1-1.1-1.4-1.3-2.8-1.3-4.3.6 2.3 1.8 4.5 3.4 5.6.1.1.2-.1.2-.2-1-1.9-2.2-3.3-2.8-5.4-.5-1.6-.6-3.3-.7-5 .1.5.2 1 .4 1.4.1.2.4.2.4-.1-.2-2.6-.2-4.9.1-7.4.2.9.5 1.8.8 2.5.1.3.5.1.4-.2-.3-1.5-.6-3.2-.6-4.7 0-1.3.3-2.6.4-3.9 0 1.1.1 2.1.4 2.9.1.2.4.1.4-.1.1-2.1 0-4.1.7-6.1.6-1.8 1.7-2.9 2.6-4.3 0 2.6.4 5.4 1.2 7.9-.1 0-.3 0-.3.2-.6 2.2.1 5.1 1.2 6.9.1.2.5.1.4-.2-.4-1-.7-2.1-.9-3.2zm-1.9 3.2c-.4-1.8-.4-3.6-.6-5.4 0-.2-.4-.2-.4 0-.4 2.2-.1 4.8.7 7.2-.1 0-.2.1-.2.2-.2 2.5.4 5.1 1.3 7.3.1.2.3.1.3-.1-.6-2.2-.8-4.3-1-6.5.5 1.2 1.1 2.3 1.8 3.2.2.3.6-.1.4-.3-1-1.9-1.8-3.6-2.3-5.6zm-3.1 7c-.1-.3-.5-.3-.5.1.2 2.8 1.5 5.4 3.1 7.6.2.2.5-.1.3-.3-1.4-2.4-2.1-4.8-2.9-7.4zm.7 5.6c-.1-.2-.4-.2-.4.1.1 1.8.8 3.8 2.1 5 .2.2.5 0 .4-.3-.8-1.6-1.6-3.1-2.1-4.8z" fill="#bb8f5c" stroke-width="none" opacity="1" stroke="none"></path><path id="SvgjsPath72114" d="M139.8 63.6c-.1-.3-.6-.2-.5.1.6 4.1.6 8.2.1 12.3 0 .2.3.3.4.1 1-4.2 1-8.3 0-12.5zm2.1 8.5c-.5 2.4-1.1 5-1.2 7.5 0 .3.5.4.6.1.7-2.3.9-4.9 1.3-7.4 0-.5-.6-.7-.7-.2zm.2 6.8c0 .7-.3 1.2-.4 1.9 0 .2.2.4.4.2.5-.5.6-1.4.6-2.1 0-.4-.6-.4-.6 0zm-78.5-5.2c-1.1-2.3-2-4.4-2.2-7 0-.3-.5-.3-.5 0 0 2.6.7 5.3 2.3 7.3.2.2.5 0 .4-.3zm-3.8-1c-.1-.4-.7-.2-.6.2.4 1.9.9 3.7 1.8 5.4.1.2.4.1.3-.1-.4-1.9-1-3.6-1.5-5.5zM61.6 84c-.7-1.3-1.5-2.4-1.8-3.8-.1-.3-.5-.2-.5.1.2 1.4.8 3 1.9 4 .2.1.5-.1.4-.3z" fill="#d9ba97" stroke-width="none" opacity="1" stroke="none"></path></g><g id="svga-group-glasses-single-move" transform="matrix(1,0,0,1,0,0)"><g id="svga-group-glasses-single" transform="matrix(1,0,0,1,0,0)"></g></g></g></g></g><rect id="svga-credit-rect" width="200" height="15" x="0" y="185" fill="#ecf0f1" opacity="0.5" style="display: none;"></rect><text id="svga-credit-text" font-family="Avenir Next, Roboto, Helvetica, Arial, sans-serif" font-size="10px" text-anchor="start" font-weight="400" size="10px" anchor="start" weight="400" fill="#333333" x="33.40447998046875" y="182.60824704170227" style="display: none;"><tspan id="SvgjsTspan71421" dy="13" x="33.40447998046875">Created on AvatarMaker.com</tspan></text></g></svg>